<svg width="276" height="150" viewBox="0 0 276 150" fill="none" xmlns="http://www.w3.org/2000/svg">
<rect width="274.822" height="150" transform="translate(0.437134)" fill="white"/>
<path d="M113.574 78.584H120.767C120.518 79.2215 120.185 79.8175 119.769 80.3719C119.381 80.9263 118.91 81.4114 118.356 81.8272C117.801 82.2153 117.15 82.5202 116.402 82.7419C115.653 82.936 114.794 83.033 113.824 83.033C112.216 83.033 110.802 82.6865 109.582 81.9935C108.363 81.3005 107.406 80.3026 106.714 78.9998C106.021 77.6692 105.674 76.1031 105.674 74.3013C105.674 72.4718 106.034 70.9333 106.755 69.686C107.504 68.4386 108.501 67.4961 109.749 66.8585C110.996 66.221 112.354 65.9022 113.824 65.9022C115.376 65.9022 116.637 66.2626 117.607 66.9833C118.578 67.704 119.354 68.591 119.936 69.6444L127.295 66.1101C126.353 64.7518 125.244 63.546 123.969 62.4927C122.694 61.4116 121.211 60.5662 119.52 59.9563C117.857 59.3188 115.958 59 113.824 59C111.467 59 109.278 59.3604 107.254 60.0811C105.23 60.7741 103.47 61.7997 101.973 63.158C100.477 64.4885 99.3123 66.0963 98.4807 67.9812C97.6492 69.8661 97.2334 71.9728 97.2334 74.3013C97.2334 76.6297 97.6353 78.7642 98.4392 80.7045C99.243 82.6172 100.366 84.2665 101.807 85.6525C103.276 87.0108 104.995 88.0641 106.963 88.8126C108.959 89.561 111.135 89.9352 113.491 89.9352C116.041 89.9352 118.3 89.4917 120.268 88.6047C122.237 87.6899 123.872 86.4425 125.175 84.8625C126.478 83.2825 127.434 81.4391 128.044 79.3324C128.654 77.2257 128.862 74.9804 128.668 72.5965H113.574V78.584Z" fill="#414445"/>
<path fill-rule="evenodd" clip-rule="evenodd" d="M75.8147 73.3154C76.5336 73.5825 77.2129 73.9112 77.8527 74.3013C78.9892 74.9666 79.8901 75.8397 80.5554 76.9208C81.2484 77.9742 81.5949 79.2493 81.5949 80.7461C81.5949 82.6865 81.1236 84.2527 80.1812 85.4446C79.2387 86.6366 77.8943 87.5097 76.148 88.0641C74.4016 88.5908 72.3088 88.8541 69.8694 88.8541H57.4371V59.7484H69.121C71.2 59.7484 73.0433 60.0256 74.6511 60.58C76.2866 61.1344 77.5755 61.966 78.518 63.0748C79.4605 64.1559 79.9317 65.528 79.9317 67.1912C79.9317 68.7712 79.4605 70.1295 78.518 71.266C77.8116 72.0971 76.9105 72.7802 75.8147 73.3154ZM65.5036 76.7129V82.7004H68.8715C69.6754 82.7004 70.3961 82.6172 71.0337 82.4509C71.6989 82.2846 72.2256 81.9797 72.6137 81.5361C73.0018 81.0649 73.1958 80.3996 73.1958 79.5403C73.1958 78.9859 73.0849 78.5285 72.8632 78.1682C72.6414 77.8078 72.3226 77.5168 71.9068 77.295C71.5188 77.0733 71.0614 76.9208 70.5347 76.8376C70.0358 76.7545 69.4814 76.7129 68.8715 76.7129H65.5036ZM65.5036 71.266H68.1231C68.8715 71.266 69.4952 71.1551 69.9942 70.9333C70.4931 70.7116 70.8673 70.3928 71.1168 69.977C71.394 69.5612 71.5326 69.0623 71.5326 68.4801C71.5326 67.5931 71.2416 66.9417 70.6594 66.5259C70.1051 66.1101 69.2596 65.9022 68.1231 65.9022H65.5036V71.266Z" fill="#414445"/>
<path d="M93.7491 88.8541H85.5164V59.7484H93.7491V88.8541Z" fill="#414445"/>
<path fill-rule="evenodd" clip-rule="evenodd" d="M153.33 74.3011C152.69 73.911 152.011 73.5824 151.292 73.3152C152.387 72.78 153.289 72.0969 153.995 71.2658C154.937 70.1293 155.409 68.771 155.409 67.191C155.409 65.5278 154.937 64.1557 153.995 63.0746C153.052 61.9658 151.764 61.1342 150.128 60.5799C148.52 60.0255 146.677 59.7483 144.598 59.7483H132.914V88.854H145.346C147.786 88.854 149.879 88.5906 151.625 88.064C153.371 87.5096 154.716 86.6364 155.658 85.4444C156.601 84.2525 157.072 82.6863 157.072 80.746C157.072 79.2491 156.725 77.974 156.032 76.9206C155.367 75.8396 154.466 74.9664 153.33 74.3011ZM140.981 82.7002V76.7127H144.348C144.958 76.7127 145.513 76.7543 146.012 76.8375C146.538 76.9206 146.996 77.0731 147.384 77.2948C147.8 77.5166 148.118 77.8077 148.34 78.168C148.562 78.5284 148.673 78.9858 148.673 79.5401C148.673 80.3995 148.479 81.0647 148.091 81.536C147.703 81.9795 147.176 82.2844 146.511 82.4507C145.873 82.617 145.152 82.7002 144.348 82.7002H140.981ZM143.6 71.2658H140.981V65.902H143.6C144.737 65.902 145.582 66.1099 146.136 66.5257C146.719 66.9415 147.01 67.5929 147.01 68.48C147.01 69.0621 146.871 69.561 146.594 69.9768C146.344 70.3926 145.97 70.7114 145.471 70.9332C144.972 71.1549 144.348 71.2658 143.6 71.2658Z" fill="#414445"/>
<path fill-rule="evenodd" clip-rule="evenodd" d="M176.503 88.854L170.79 79.2075H169.06V88.854H160.993V59.7483H172.428C175.089 59.7483 177.279 60.1641 178.997 60.9956C180.744 61.8272 182.033 62.9776 182.864 64.4468C183.724 65.8882 184.153 67.5652 184.153 69.4779C184.153 71.3628 183.724 73.0537 182.864 74.5506C182.033 76.0197 180.744 77.1701 178.997 78.0017C178.878 78.0573 178.757 78.111 178.634 78.1628L185.9 88.854H176.503ZM169.06 73.0953V66.5673H171.762C172.622 66.5673 173.342 66.6921 173.925 66.9415C174.507 67.191 174.95 67.5652 175.255 68.0642C175.588 68.5354 175.754 69.1175 175.754 69.8105C175.754 70.5035 175.588 71.0995 175.255 71.5984C174.95 72.0974 174.507 72.4716 173.925 72.7211C173.342 72.9706 172.622 73.0953 171.762 73.0953H169.06Z" fill="#414445"/>
<path fill-rule="evenodd" clip-rule="evenodd" d="M186.565 74.3686C186.565 76.6413 186.951 78.7338 187.723 80.6461C188.496 82.5585 189.585 84.2214 190.992 85.6349C192.427 87.0206 194.109 88.1015 196.04 88.8775C197.971 89.6258 200.095 90 202.412 90C204.729 90 206.853 89.6258 208.784 88.8775C210.742 88.1015 212.425 87.0206 213.832 85.6349C215.238 84.2214 216.328 82.5585 217.1 80.6461C217.873 78.7338 218.259 76.6413 218.259 74.3686C218.259 72.0683 217.859 69.9897 217.059 68.1327C216.287 66.2481 215.183 64.6406 213.749 63.3103C212.314 61.9523 210.632 60.9129 208.701 60.1923C206.798 59.444 204.701 59.0699 202.412 59.0699C200.178 59.0699 198.095 59.444 196.164 60.1923C194.261 60.9129 192.592 61.9523 191.158 63.3103C189.723 64.6406 188.592 66.2481 187.765 68.1327C186.965 69.9897 186.565 72.0683 186.565 74.3686ZM209.285 74.5342C209.285 78.1194 206.207 81.0257 202.411 81.0257C198.615 81.0257 195.538 78.1194 195.538 74.5342C195.538 70.9491 198.615 68.0427 202.411 68.0427C206.207 68.0427 209.285 70.9491 209.285 74.5342Z" fill="#414445"/>
</svg>
