<svg width="276" height="150" viewBox="0 0 276 150" fill="none" xmlns="http://www.w3.org/2000/svg">
<rect width="274.82" height="150" transform="translate(0.436523)" fill="#0D0A06"/>
<path d="M63.4239 74.6338H69.1203C71.1993 74.6338 73.0426 74.3566 74.6503 73.8022C76.2858 73.2201 77.5747 72.3747 78.5172 71.2659C79.4597 70.1294 79.9309 68.7711 79.9309 67.1911C79.9309 65.5279 79.4597 64.1558 78.5172 63.0748C77.5747 61.966 76.2858 61.1344 74.6503 60.58C73.0426 60.0256 71.1993 59.7484 69.1203 59.7484H57.4365V88.8539H69.8687C72.308 88.8539 74.4009 88.5906 76.1472 88.0639C77.8935 87.5095 79.2379 86.6363 80.1804 85.4444C81.1228 84.2525 81.5941 82.6863 81.5941 80.7459C81.5941 79.2491 81.2476 77.974 80.5546 76.9207C79.8893 75.8396 78.9884 74.9664 77.8519 74.3012C76.7154 73.6082 75.4542 73.1092 74.0682 72.8043C72.6822 72.4717 71.2824 72.3054 69.8687 72.3054H63.4239V76.7128H68.8708C69.4806 76.7128 70.035 76.7543 70.534 76.8375C71.0607 76.9207 71.518 77.0731 71.9061 77.2949C72.3219 77.5166 72.6407 77.8077 72.8624 78.168C73.0842 78.5284 73.1951 78.9858 73.1951 79.5401C73.1951 80.3995 73.001 81.0647 72.6129 81.5359C72.2249 81.9795 71.6982 82.2844 71.0329 82.4507C70.3954 82.617 69.6747 82.7002 68.8708 82.7002H65.5029V65.9022H68.1224C69.2589 65.9022 70.1043 66.1101 70.6587 66.5258C71.2408 66.9416 71.5319 67.593 71.5319 68.4801C71.5319 69.0622 71.3933 69.5611 71.1161 69.9769C70.8666 70.3927 70.4924 70.7115 69.9935 70.9332C69.4945 71.155 68.8708 71.2659 68.1224 71.2659H63.4239V74.6338Z" fill="#BB9D6F"/>
<path d="M85.5155 59.7484V88.8539H93.7482V59.7484H85.5155Z" fill="#BB9D6F"/>
<path d="M113.573 78.5838H120.766C120.517 79.2214 120.184 79.8173 119.768 80.3717C119.38 80.9261 118.909 81.4112 118.355 81.827C117.8 82.2151 117.149 82.52 116.4 82.7417C115.652 82.9358 114.793 83.0328 113.823 83.0328C112.215 83.0328 110.801 82.6863 109.581 81.9933C108.362 81.3003 107.405 80.3024 106.712 78.9996C106.019 77.6691 105.673 76.1029 105.673 74.3012C105.673 72.4717 106.033 70.9332 106.754 69.6859C107.502 68.4385 108.5 67.496 109.748 66.8585C110.995 66.2209 112.353 65.9022 113.823 65.9022C115.375 65.9022 116.636 66.2625 117.606 66.9832C118.576 67.7039 119.353 68.5909 119.935 69.6443L127.294 66.1101C126.352 64.7518 125.243 63.546 123.968 62.4927C122.693 61.4116 121.21 60.5662 119.519 59.9563C117.856 59.3188 115.957 59 113.823 59C111.466 59 109.277 59.3604 107.253 60.0811C105.229 60.774 103.469 61.7997 101.972 63.1579C100.476 64.4885 99.3114 66.0962 98.4798 67.9811C97.6482 69.866 97.2324 71.9727 97.2324 74.3012C97.2324 76.6296 97.6343 78.764 98.4382 80.7044C99.2421 82.617 100.365 84.2663 101.806 85.6523C103.275 87.0106 104.994 88.0639 106.962 88.8123C108.958 89.5607 111.134 89.935 113.49 89.935C116.04 89.935 118.299 89.4914 120.267 88.6044C122.235 87.6897 123.871 86.4423 125.174 84.8623C126.476 83.2823 127.433 81.4389 128.043 79.3323C128.652 77.2256 128.86 74.9803 128.666 72.5964H113.573V78.5838Z" fill="#BB9D6F"/>
<path fill-rule="evenodd" clip-rule="evenodd" d="M186.563 74.3682C186.563 76.6408 186.949 78.7333 187.722 80.6457C188.494 82.558 189.583 84.2209 190.99 85.6343C192.425 87.0201 194.107 88.101 196.038 88.877C197.969 89.6253 200.093 89.9994 202.41 89.9994C204.727 89.9994 206.851 89.6253 208.782 88.877C210.74 88.101 212.423 87.0201 213.829 85.6343C215.236 84.2209 216.326 82.558 217.098 80.6457C217.87 78.7333 218.257 76.6408 218.257 74.3682C218.257 72.0679 217.857 69.9893 217.057 68.1324C216.284 66.2477 215.181 64.6403 213.747 63.31C212.312 61.9519 210.63 60.9126 208.699 60.192C206.796 59.4437 204.699 59.0696 202.41 59.0696C200.176 59.0696 198.093 59.4437 196.162 60.192C194.259 60.9126 192.59 61.9519 191.156 63.31C189.721 64.6403 188.59 66.2477 187.763 68.1324C186.963 69.9893 186.563 72.0679 186.563 74.3682ZM209.283 74.5345C209.283 78.1197 206.206 81.026 202.41 81.026C198.614 81.026 195.537 78.1197 195.537 74.5345C195.537 70.9494 198.614 68.0431 202.41 68.0431C206.206 68.0431 209.283 70.9494 209.283 74.5345Z" fill="white"/>
<path fill-rule="evenodd" clip-rule="evenodd" d="M151.291 73.3154C152.009 73.5825 152.689 73.9111 153.328 74.3013C154.465 74.9665 155.366 75.8397 156.031 76.9208C156.724 77.9741 157.071 79.2492 157.071 80.7461C157.071 82.6864 156.599 84.2526 155.657 85.4445C154.714 86.6364 153.37 87.5096 151.624 88.064C149.877 88.5907 147.785 88.854 145.345 88.854H132.913V59.7485H144.597C146.676 59.7485 148.519 60.0257 150.127 60.5801C151.762 61.1345 153.051 61.9661 153.994 63.0749C154.936 64.1559 155.407 65.5281 155.407 67.1912C155.407 68.7712 154.936 70.1295 153.994 71.266C153.287 72.0971 152.386 72.7802 151.291 73.3154ZM140.979 76.7129V82.7003H144.347C145.151 82.7003 145.872 82.6171 146.509 82.4508C147.175 82.2845 147.701 81.9796 148.09 81.5361C148.478 81.0648 148.672 80.3996 148.672 79.5403C148.672 78.9859 148.561 78.5285 148.339 78.1681C148.117 77.8078 147.798 77.5167 147.383 77.295C146.995 77.0732 146.537 76.9208 146.011 76.8376C145.512 76.7544 144.957 76.7129 144.347 76.7129H140.979ZM140.979 71.266H143.599C144.347 71.266 144.971 71.1551 145.47 70.9334C145.969 70.7116 146.343 70.3928 146.593 69.977C146.87 69.5612 147.008 69.0623 147.008 68.4802C147.008 67.5932 146.717 66.9417 146.135 66.526C145.581 66.1102 144.735 65.9023 143.599 65.9023H140.979V71.266Z" fill="white"/>
<path fill-rule="evenodd" clip-rule="evenodd" d="M170.788 79.2076L176.501 88.854H185.898L178.632 78.163C178.756 78.1112 178.877 78.0575 178.996 78.0018C180.742 77.1702 182.031 76.0199 182.863 74.5507C183.722 73.0539 184.152 71.363 184.152 69.4781C184.152 67.5654 183.722 65.8884 182.863 64.447C182.031 62.9779 180.742 61.8275 178.996 60.9959C177.277 60.1643 175.087 59.7485 172.426 59.7485H160.992V88.854H169.058V79.2076H170.788ZM169.058 66.5675V73.0955H171.761C172.62 73.0955 173.341 72.9707 173.923 72.7213C174.505 72.4718 174.949 72.0976 175.254 71.5986C175.586 71.0997 175.753 70.5037 175.753 69.8107C175.753 69.1177 175.586 68.5356 175.254 68.0644C174.949 67.5654 174.505 67.1912 173.923 66.9417C173.341 66.6923 172.62 66.5675 171.761 66.5675H169.058Z" fill="white"/>
</svg>
