<svg width="162" height="140" viewBox="0 0 162 140" fill="none" xmlns="http://www.w3.org/2000/svg">
<rect width="162" height="140" fill="#0D0A06"/>
<path d="M99.03 58.5941H92.7517V53.3682H105.925C106.095 55.4489 105.913 57.4086 105.381 59.2474C104.849 61.0861 104.014 62.695 102.877 64.0741C101.74 65.4531 100.312 66.5419 98.5945 67.3403C96.8767 68.1145 94.9049 68.5016 92.6791 68.5016C90.6226 68.5016 88.7234 68.1749 86.9814 67.5217C85.2636 66.8685 83.7636 65.9491 82.4813 64.7636C81.2232 63.5539 80.2434 62.1144 79.5418 60.445C78.8401 58.7514 78.4893 56.8884 78.4893 54.8562C78.4893 52.8239 78.8522 50.9851 79.578 49.3399C80.3039 47.6947 81.32 46.2915 82.6265 45.1302C83.933 43.9447 85.4693 43.0495 87.2354 42.4446C89.0016 41.8156 90.9129 41.5011 92.9694 41.5011C94.8324 41.5011 96.4896 41.7793 97.9413 42.3358C99.4171 42.868 100.711 43.6059 101.824 44.5495C102.937 45.4689 103.905 46.5213 104.728 47.7068L98.3042 50.7916C97.7961 49.8722 97.1187 49.098 96.2719 48.4689C95.4251 47.8399 94.3243 47.5254 92.9694 47.5254C91.6871 47.5254 90.5016 47.8036 89.4129 48.3601C88.3242 48.9165 87.4532 49.7391 86.7999 50.8279C86.1709 51.9166 85.8564 53.2593 85.8564 54.8562C85.8564 56.4288 86.1588 57.7957 86.7637 58.957C87.3685 60.0942 88.2032 60.9651 89.2677 61.57C90.3323 62.1748 91.5662 62.4773 92.9694 62.4773C93.8162 62.4773 94.5662 62.3926 95.2195 62.2232C95.8727 62.0297 96.4412 61.7635 96.9251 61.4248C97.409 61.0619 97.8203 60.6385 98.159 60.1546C98.5219 59.6708 98.8123 59.1506 99.03 58.5941Z" fill="#BB9D6F"/>
<path fill-rule="evenodd" clip-rule="evenodd" d="M61.5738 54.8562C61.0153 54.5156 60.4224 54.2288 59.795 53.9957C60.7514 53.5285 61.5378 52.9323 62.1544 52.2069C62.977 51.215 63.3883 50.0295 63.3883 48.6504C63.3883 47.1988 62.977 46.0012 62.1544 45.0576C61.3318 44.0898 60.2068 43.364 58.7793 42.8801C57.3761 42.3962 55.7672 42.1543 53.9526 42.1543H43.7549V67.558H54.6059C56.735 67.558 58.5616 67.3282 60.0858 66.8685C61.61 66.3846 62.7834 65.6225 63.606 64.5821C64.4286 63.5418 64.8399 62.1748 64.8399 60.4813C64.8399 59.1748 64.5375 58.0619 63.9327 57.1425C63.352 56.1989 62.5657 55.4368 61.5738 54.8562ZM50.7953 62.1869V56.961H53.7349C54.2672 56.961 54.751 56.9973 55.1865 57.0699C55.6462 57.1425 56.0454 57.2756 56.3841 57.4691C56.7471 57.6627 57.0253 57.9167 57.2188 58.2312C57.4124 58.5457 57.5092 58.9449 57.5092 59.4288C57.5092 60.1788 57.3398 60.7595 57.0011 61.1708C56.6624 61.5579 56.2027 61.824 55.622 61.9692C55.0656 62.1144 54.4365 62.1869 53.7349 62.1869H50.7953ZM53.0817 52.2069H50.7953V47.5254H53.0817C54.0736 47.5254 54.8115 47.7068 55.2954 48.0697C55.8035 48.4326 56.0575 49.0012 56.0575 49.7754C56.0575 50.2835 55.9366 50.719 55.6946 51.0819C55.4769 51.4448 55.1502 51.723 54.7148 51.9166C54.2793 52.1101 53.7349 52.2069 53.0817 52.2069Z" fill="#BB9D6F"/>
<path d="M68.2626 67.558H75.4482V42.1543H68.2626V67.558Z" fill="#BB9D6F"/>
<path fill-rule="evenodd" clip-rule="evenodd" d="M90.5823 84.8558C90.5823 86.8393 90.9193 88.6657 91.5934 90.3348C92.2676 92.0039 93.2185 93.4553 94.4464 94.689C95.6983 95.8985 97.1669 96.8419 98.8522 97.5192C100.537 98.1724 102.391 98.4989 104.414 98.4989C106.436 98.4989 108.29 98.1724 109.975 97.5192C111.684 96.8419 113.153 95.8985 114.381 94.689C115.609 93.4553 116.56 92.0039 117.234 90.3348C117.908 88.6657 118.245 86.8393 118.245 84.8558C118.245 82.848 117.896 81.0337 117.198 79.413C116.523 77.7681 115.56 76.3651 114.309 75.204C113.057 74.0187 111.588 73.1115 109.903 72.4826C108.242 71.8295 106.412 71.5029 104.414 71.5029C102.463 71.5029 100.646 71.8295 98.9605 72.4826C97.2993 73.1115 95.8428 74.0187 94.5908 75.204C93.3389 76.3651 92.3518 77.7681 91.6296 79.413C90.9314 81.0337 90.5823 82.848 90.5823 84.8558ZM110.412 85.0004C110.412 88.1296 107.726 90.6662 104.413 90.6662C101.1 90.6662 98.414 88.1296 98.414 85.0004C98.414 81.8713 101.1 79.3346 104.413 79.3346C107.726 79.3346 110.412 81.8713 110.412 85.0004Z" fill="white"/>
<path fill-rule="evenodd" clip-rule="evenodd" d="M61.5742 84.7981C61.0158 84.4576 60.4229 84.1708 59.7954 83.9376C60.7518 83.4705 61.5383 82.8743 62.1549 82.1489C62.9775 81.1569 63.3888 79.9714 63.3888 78.5924C63.3888 77.1407 62.9775 75.9431 62.1549 74.9995C61.3323 74.0318 60.2072 73.306 58.7798 72.8221C57.3765 72.3382 55.7676 72.0963 53.9531 72.0963H43.7553V97.5H54.6063C56.7354 97.5 58.5621 97.2701 60.0863 96.8104C61.6105 96.3265 62.7839 95.5644 63.6065 94.5241C64.4291 93.4837 64.8404 92.1168 64.8404 90.4232C64.8404 89.1167 64.538 88.0038 63.9331 87.0844C63.3525 86.1409 62.5662 85.3788 61.5742 84.7981ZM50.7958 92.1289V86.903H53.7354C54.2676 86.903 54.7515 86.9393 55.187 87.0119C55.6467 87.0844 56.0459 87.2175 56.3846 87.4111C56.7475 87.6046 57.0257 87.8587 57.2193 88.1732C57.4128 88.4877 57.5096 88.8869 57.5096 89.3708C57.5096 90.1208 57.3403 90.7014 57.0015 91.1127C56.6628 91.4998 56.2031 91.766 55.6225 91.9111C55.066 92.0563 54.437 92.1289 53.7354 92.1289H50.7958ZM53.0821 82.1489H50.7958V77.4673H53.0821C54.0741 77.4673 54.812 77.6488 55.2959 78.0117C55.8039 78.3746 56.058 78.9432 56.058 79.7174C56.058 80.2255 55.937 80.6609 55.6951 81.0239C55.4773 81.3868 55.1507 81.665 54.7152 81.8585C54.2797 82.0521 53.7354 82.1489 53.0821 82.1489Z" fill="white"/>
<path fill-rule="evenodd" clip-rule="evenodd" d="M81.7996 97.5L76.8133 89.0804H75.3035V97.5H68.2631V72.0963H78.2431C80.5657 72.0963 82.4771 72.4592 83.9771 73.185C85.5013 73.9108 86.6263 74.9149 87.3521 76.1972C88.1022 77.4552 88.4772 78.919 88.4772 80.5884C88.4772 82.2336 88.1022 83.7094 87.3521 85.0159C86.6263 86.2981 85.5013 87.3022 83.9771 88.028C83.8733 88.0766 83.7675 88.1235 83.6597 88.1687L90.0014 97.5H81.7996ZM75.3035 83.7457V78.048H77.6625C78.4125 78.048 79.0415 78.1569 79.5496 78.3746C80.0577 78.5924 80.4448 78.919 80.7109 79.3545C81.0012 79.7658 81.1464 80.2738 81.1464 80.8787C81.1464 81.4835 81.0012 82.0037 80.7109 82.4392C80.4448 82.8747 80.0577 83.2013 79.5496 83.4191C79.0415 83.6368 78.4125 83.7457 77.6625 83.7457H75.3035Z" fill="white"/>
</svg>
