<svg width="208" height="40" viewBox="0 0 208 40" fill="none" xmlns="http://www.w3.org/2000/svg">
    <path d="M7.72583 20.173H15.0761C17.7587 20.173 20.1372 19.8153 22.2118 19.1C24.3221 18.3488 25.9852 17.2579 27.2014 15.8272C28.4175 14.3607 29.0255 12.6081 29.0255 10.5694C29.0255 8.4233 28.4175 6.6528 27.2014 5.25786C25.9852 3.82715 24.3221 2.75412 22.2118 2.03876C20.1372 1.32341 17.7587 0.965729 15.0761 0.965729H0V38.5218H16.0418C19.1894 38.5218 21.8898 38.182 24.1432 37.5025C26.3966 36.7871 28.1313 35.6604 29.3474 34.1224C30.5635 32.5844 31.1716 30.5635 31.1716 28.0598C31.1716 26.1283 30.7245 24.483 29.8303 23.1238C28.9719 21.7289 27.8094 20.6022 26.3429 19.7438C24.8765 18.8496 23.249 18.2058 21.4606 17.8123C19.6722 17.3831 17.866 17.1685 16.0418 17.1685H7.72583V22.8556H14.7542C15.5411 22.8556 16.2564 22.9092 16.9002 23.0165C17.5798 23.1238 18.17 23.3206 18.6708 23.6067C19.2073 23.8928 19.6186 24.2684 19.9047 24.7334C20.1909 25.1984 20.334 25.7885 20.334 26.5039C20.334 27.6127 20.0836 28.4711 19.5828 29.0792C19.0821 29.6514 18.4025 30.0449 17.5441 30.2595C16.7214 30.4741 15.7914 30.5814 14.7542 30.5814H10.4084V8.90616H13.7885C15.2549 8.90616 16.3458 9.17442 17.0612 9.71094C17.8123 10.2475 18.1879 11.088 18.1879 12.2326C18.1879 12.9837 18.009 13.6275 17.6514 14.164C17.3295 14.7005 16.8466 15.1119 16.2028 15.398C15.559 15.6841 14.7542 15.8272 13.7885 15.8272H7.72583V20.173Z" fill="#BB9D6F"/>
    <path d="M36.2316 0.965729V38.5218H46.8546V0.965729H36.2316Z" fill="#BB9D6F"/>
    <path d="M72.4355 25.2699H81.7172C81.3953 26.0926 80.9661 26.8616 80.4296 27.5769C79.9288 28.2923 79.3208 28.9182 78.6054 29.4547C77.8901 29.9555 77.0496 30.3489 76.0838 30.6351C75.1181 30.8854 74.0093 31.0106 72.7574 31.0106C70.6829 31.0106 68.8587 30.5635 67.285 29.6693C65.7112 28.7751 64.4772 27.4875 63.583 25.8064C62.6888 24.0896 62.2417 22.0687 62.2417 19.7438C62.2417 17.3831 62.7067 15.398 63.6366 13.7885C64.6024 12.1789 65.89 10.9628 67.4996 10.1402C69.1091 9.31749 70.8617 8.90616 72.7574 8.90616C74.7604 8.90616 76.3878 9.37114 77.6397 10.3011C78.8916 11.2311 79.8931 12.3756 80.6442 13.7348L90.1405 9.17442C88.9244 7.4218 87.4937 5.86591 85.8484 4.50674C84.2031 3.11179 82.2895 2.02088 80.1077 1.23399C77.9616 0.411329 75.5115 0 72.7574 0C69.7172 0 66.8915 0.464981 64.2805 1.39494C61.6694 2.28913 59.3982 3.61254 57.4667 5.36516C55.5353 7.08201 54.033 9.15654 52.96 11.5887C51.887 14.0209 51.3504 16.7393 51.3504 19.7438C51.3504 22.7483 51.8691 25.5024 52.9063 28.0061C53.9436 30.4741 55.3922 32.6023 57.2521 34.3907C59.1478 36.1433 61.3654 37.5025 63.9049 38.4682C66.4802 39.4339 69.2879 39.9168 72.3282 39.9168C75.6188 39.9168 78.5339 39.3445 81.0734 38.1999C83.6129 37.0196 85.7232 35.41 87.4043 33.3713C89.0854 31.3325 90.3194 28.954 91.1063 26.2356C91.8932 23.5173 92.1614 20.6201 91.911 17.5441H72.4355V25.2699Z" fill="#BB9D6F"/>
    <path fill-rule="evenodd" clip-rule="evenodd" d="M166.618 19.8304C166.618 22.7628 167.116 25.4629 168.113 27.9304C169.109 30.398 170.515 32.5437 172.33 34.3676C174.181 36.1557 176.352 37.5504 178.844 38.5517C181.335 39.5173 184.076 40 187.066 40C190.055 40 192.796 39.5173 195.287 38.5517C197.814 37.5504 199.986 36.1557 201.801 34.3676C203.616 32.5437 205.022 30.398 206.018 27.9304C207.015 25.4629 207.513 22.7628 207.513 19.8304C207.513 16.8621 206.997 14.18 205.965 11.784C204.969 9.35216 203.545 7.27797 201.694 5.5614C199.843 3.80908 197.672 2.46801 195.181 1.5382C192.725 0.572629 190.02 0.0898438 187.066 0.0898438C184.183 0.0898438 181.495 0.572629 179.004 1.5382C176.548 2.46801 174.395 3.80908 172.544 5.5614C170.693 7.27797 169.234 9.35216 168.166 11.784C167.134 14.18 166.618 16.8621 166.618 19.8304ZM195.934 20.045C195.934 24.671 191.964 28.4212 187.066 28.4212C182.167 28.4212 178.197 24.671 178.197 20.045C178.197 15.4189 182.167 11.6687 187.066 11.6687C191.964 11.6687 195.934 15.4189 195.934 20.045Z" fill="white"/>
    <path fill-rule="evenodd" clip-rule="evenodd" d="M121.104 18.4719C122.032 18.8166 122.908 19.2406 123.734 19.744C125.2 20.6024 126.363 21.7291 127.221 23.124C128.115 24.4832 128.562 26.1285 128.562 28.06C128.562 30.5637 127.954 32.5846 126.738 34.1226C125.522 35.6606 123.787 36.7873 121.534 37.5027C119.281 38.1823 116.58 38.522 113.433 38.522H97.3907V0.96593H112.467C115.149 0.96593 117.528 1.32361 119.603 2.03896C121.713 2.75432 123.376 3.82735 124.592 5.25806C125.808 6.653 126.416 8.4235 126.416 10.5696C126.416 12.6083 125.808 14.3609 124.592 15.8274C123.681 16.8998 122.518 17.7813 121.104 18.4719ZM107.799 22.8558V30.5816H112.145C113.182 30.5816 114.112 30.4743 114.935 30.2597C115.793 30.0451 116.473 29.6516 116.974 29.0794C117.474 28.4713 117.725 27.6129 117.725 26.5041C117.725 25.7887 117.582 25.1986 117.295 24.7336C117.009 24.2686 116.598 23.893 116.061 23.6069C115.561 23.3208 114.971 23.124 114.291 23.0167C113.647 22.9094 112.932 22.8558 112.145 22.8558H107.799ZM107.799 15.8274H111.179C112.145 15.8274 112.95 15.6844 113.594 15.3982C114.237 15.1121 114.72 14.7007 115.042 14.1642C115.4 13.6277 115.579 12.9839 115.579 12.2328C115.579 11.0882 115.203 10.2477 114.452 9.71114C113.737 9.17463 112.646 8.90637 111.179 8.90637H107.799V15.8274Z" fill="white"/>
    <path fill-rule="evenodd" clip-rule="evenodd" d="M146.263 26.0749L153.634 38.522H165.76L156.384 24.7269C156.544 24.6601 156.7 24.5908 156.853 24.519C159.107 23.4459 160.77 21.9616 161.843 20.0659C162.952 18.1344 163.506 15.9526 163.506 13.5204C163.506 11.0524 162.952 8.88848 161.843 7.02856C160.77 5.13287 159.107 3.64851 156.853 2.57548C154.636 1.50245 151.81 0.96593 148.377 0.96593H133.622V38.522H144.031V26.0749H146.263ZM144.031 9.76479V18.1881H147.518C148.627 18.1881 149.557 18.0271 150.308 17.7052C151.059 17.3833 151.631 16.9005 152.025 16.2566C152.454 15.6128 152.669 14.8438 152.669 13.9496C152.669 13.0554 152.454 12.3043 152.025 11.6963C151.631 11.0524 151.059 10.5696 150.308 10.2477C149.557 9.92575 148.627 9.76479 147.518 9.76479H144.031Z" fill="white"/>
</svg>
