<svg width="162" height="140" viewBox="0 0 162 140" fill="none" xmlns="http://www.w3.org/2000/svg">
<rect width="162" height="140" fill="#102C40"/>
<path d="M93.1965 37.6604H86.3505L85.1267 52.4195H91.9727C96.0623 52.4195 99.6516 49.1156 99.9895 45.04C100.327 40.9644 97.2861 37.6604 93.1965 37.6604Z" fill="#FF8833"/>
<path d="M84.8496 55.7612H91.6957C95.7853 55.7612 98.8266 59.0652 98.4886 63.1408C98.1507 67.2164 94.5615 70.5204 90.4719 70.5204H83.6258L84.8496 55.7612Z" fill="#FF8833"/>
<path d="M75.8722 37.6604H69.0262L67.8024 52.4196H74.6484C78.738 52.4196 82.3273 49.1156 82.6652 45.04C83.0031 40.9644 79.9618 37.6604 75.8722 37.6604Z" fill="white"/>
<path d="M93.5104 93.6305C93.417 93.6772 93.4092 93.7239 93.487 93.7706C94.6544 94.4088 95.2382 95.4361 95.2382 96.8526C95.2382 96.9927 95.2226 97.234 95.1915 97.5764C95.0047 99.0863 94.3587 100.23 93.2535 101.009C92.1639 101.771 90.8175 102.153 89.2142 102.153H83.3303C83.2525 102.153 83.1902 102.129 83.1435 102.083C83.0969 102.02 83.0813 101.95 83.0969 101.873L85.0348 86.0889C85.0504 86.011 85.0815 85.9488 85.1282 85.9021C85.1904 85.8398 85.2605 85.8087 85.3383 85.8087H91.0354C94.2731 85.8087 95.8919 87.0306 95.8919 89.4744C95.8919 89.8324 95.8764 90.1048 95.8452 90.2916C95.674 91.8326 94.8957 92.9456 93.5104 93.6305ZM88.0234 88.6339C87.9923 88.6339 87.9612 88.6494 87.93 88.6806C87.9145 88.6961 87.9067 88.7195 87.9067 88.7506L87.4631 92.393C87.4319 92.4708 87.4631 92.5097 87.5565 92.5097H90.2182C90.9187 92.5097 91.4868 92.3463 91.9227 92.0194C92.3585 91.677 92.6153 91.2022 92.6932 90.5952L92.7165 90.315C92.7165 89.7857 92.5375 89.3732 92.1795 89.0775C91.837 88.7817 91.3389 88.6339 90.6852 88.6339H88.0234ZM89.5644 99.3042C90.3272 99.3042 90.9264 99.0941 91.3623 98.6738C91.8137 98.238 92.0394 97.6465 92.0394 96.8993C92.0394 96.3545 91.8604 95.9342 91.5024 95.6385C91.1599 95.3427 90.6696 95.1948 90.0314 95.1948H87.2296C87.1517 95.1948 87.1128 95.2338 87.1128 95.3116L86.6225 99.1875C86.6225 99.2653 86.6536 99.3042 86.7159 99.3042H89.5644Z" fill="#FF8833"/>
<path d="M108.07 94.9147C108.086 95.3972 108.039 96.0587 107.93 96.8993C107.883 97.0861 107.775 97.1795 107.603 97.1795H100.599C100.521 97.1795 100.482 97.2184 100.482 97.2962C100.498 97.6387 100.544 97.95 100.622 98.2302C100.933 99.1019 101.681 99.5377 102.864 99.5377C103.813 99.5221 104.63 99.1174 105.315 98.3236C105.44 98.1524 105.556 98.1368 105.665 98.2769L107.113 99.9346C107.16 99.9969 107.183 100.059 107.183 100.121C107.183 100.199 107.152 100.269 107.09 100.332C106.514 100.97 105.805 101.468 104.965 101.826C104.14 102.168 103.26 102.34 102.327 102.34C101.035 102.34 99.9761 102.036 99.1511 101.429C98.3261 100.822 97.7813 99.9735 97.5167 98.8839C97.3921 98.4481 97.3299 97.8955 97.3299 97.2262C97.3299 96.8526 97.3532 96.4557 97.3999 96.0354C97.4622 95.1637 97.6723 94.3387 98.0303 93.5604C98.5129 92.4553 99.2289 91.5758 100.178 90.922C101.143 90.2683 102.218 89.9414 103.401 89.9414C104.91 89.9414 106.062 90.3928 106.856 91.2956C107.65 92.1984 108.055 93.4048 108.07 94.9147ZM103.074 92.7899C102.109 92.7899 101.424 93.2491 101.019 94.1675C100.894 94.4788 100.809 94.7279 100.762 94.9147C100.762 94.9925 100.793 95.0314 100.856 95.0314H104.778C104.856 95.0314 104.895 94.9925 104.895 94.9147C104.895 94.7279 104.879 94.51 104.848 94.2609C104.77 93.7939 104.576 93.4359 104.264 93.1869C103.969 92.9222 103.572 92.7899 103.074 92.7899Z" fill="#FF8833"/>
<path d="M116.862 92.5097C116.847 92.5876 116.808 92.6576 116.746 92.7199C116.699 92.7666 116.637 92.7899 116.559 92.7899H114.387C114.325 92.7899 114.278 92.8288 114.247 92.9067L113.64 97.8566C113.625 97.95 113.617 98.0745 113.617 98.2302C113.617 98.9929 113.99 99.3743 114.738 99.3743H115.485C115.563 99.3743 115.625 99.4054 115.672 99.4677C115.734 99.5144 115.757 99.5766 115.742 99.6544L115.461 101.873C115.43 102.059 115.329 102.161 115.158 102.176C114.535 102.207 114.076 102.223 113.78 102.223C112.628 102.223 111.765 102.052 111.189 101.709C110.628 101.351 110.348 100.705 110.348 99.7712C110.348 99.6467 110.364 99.4443 110.395 99.1641L111.165 92.9067C111.196 92.8288 111.165 92.7899 111.072 92.7899H109.788C109.71 92.7899 109.648 92.7666 109.601 92.7199C109.554 92.6576 109.539 92.5876 109.554 92.5097L109.811 90.4317C109.811 90.3539 109.842 90.2916 109.904 90.2449C109.967 90.1827 110.037 90.1515 110.115 90.1515H111.399C111.477 90.1515 111.515 90.1126 111.515 90.0348L111.866 87.2563C111.881 87.1785 111.912 87.1162 111.959 87.0695C112.021 87.0072 112.091 86.9761 112.169 86.9761H114.714C114.792 86.9761 114.854 87.0072 114.901 87.0695C114.948 87.1162 114.963 87.1785 114.948 87.2563L114.598 90.0348C114.598 90.1126 114.636 90.1515 114.714 90.1515H116.886C116.964 90.1515 117.026 90.1827 117.072 90.2449C117.119 90.2916 117.135 90.3539 117.119 90.4317L116.862 92.5097Z" fill="#FF8833"/>
<path d="M45.1143 102.153C45.0365 102.153 44.9742 102.129 44.9275 102.083C44.8808 102.02 44.8653 101.95 44.8808 101.873L46.8188 86.0888C46.8343 86.011 46.8655 85.9487 46.9122 85.902C46.9744 85.8398 47.0445 85.8086 47.1223 85.8086H52.796C54.3526 85.8086 55.5901 86.1978 56.5085 86.9761C57.4269 87.7388 57.8861 88.7661 57.8861 90.0581C57.8861 90.2138 57.8705 90.4473 57.8394 90.7586L57.0455 97.2028C56.9365 98.1835 56.6019 99.0474 56.0415 99.7945C55.4811 100.542 54.7418 101.125 53.8234 101.546C52.9206 101.95 51.9088 102.153 50.7881 102.153H45.1143ZM48.4065 99.2108C48.4065 99.2886 48.4376 99.3275 48.4999 99.3275H51.255C51.9555 99.3275 52.547 99.0863 53.0295 98.6037C53.5121 98.1212 53.8078 97.4752 53.9168 96.6658L54.5939 91.2956C54.6095 91.1866 54.6172 91.0388 54.6172 90.852C54.6172 90.1671 54.4305 89.6301 54.0569 89.2409C53.6989 88.8362 53.193 88.6338 52.5392 88.6338H49.8074C49.7763 88.6338 49.7451 88.6494 49.714 88.6805C49.6985 88.6961 49.6907 88.7194 49.6907 88.7506L48.4065 99.2108Z" fill="white"/>
<path d="M66.9906 90.4317C67.0062 90.3539 67.0373 90.2916 67.084 90.2449C67.1462 90.1826 67.2163 90.1515 67.2941 90.1515H69.9559C70.0337 90.1515 70.096 90.1826 70.1427 90.2449C70.1894 90.2916 70.2049 90.3539 70.1894 90.4317L68.7884 101.873C68.7729 101.95 68.734 102.02 68.6717 102.083C68.625 102.129 68.5627 102.153 68.4849 102.153H65.8232C65.7453 102.153 65.6831 102.129 65.6364 102.083C65.5897 102.02 65.5741 101.95 65.5897 101.873L65.7064 100.869C65.722 100.806 65.7142 100.775 65.6831 100.775C65.6519 100.76 65.6208 100.775 65.5897 100.822C64.8425 101.834 63.8307 102.34 62.5543 102.34C61.5581 102.34 60.7098 102.028 60.0093 101.406C59.3089 100.767 58.8808 99.9113 58.7252 98.8372C58.6785 98.5103 58.6551 98.1757 58.6551 97.8332C58.6551 97.3663 58.694 96.7981 58.7718 96.1288C58.9275 94.9146 59.1766 93.9184 59.519 93.1401C59.9393 92.2062 60.5619 91.4435 61.3869 90.852C62.2275 90.2605 63.1692 89.9647 64.2121 89.9647C65.4574 89.9647 66.3057 90.4161 66.7571 91.3189C66.7882 91.3656 66.8116 91.389 66.8271 91.389C66.8583 91.389 66.8816 91.3579 66.8972 91.2956L66.9906 90.4317ZM65.7765 98.1368C65.901 97.9033 66.0022 97.6464 66.08 97.3663C66.1578 97.0861 66.2279 96.6891 66.2901 96.1755C66.3524 95.7552 66.3835 95.3894 66.3835 95.0781C66.3835 94.8135 66.3368 94.4944 66.2434 94.1208C66.1656 93.7161 65.9866 93.397 65.7064 93.1635C65.4262 92.9144 65.0682 92.7899 64.6324 92.7899C64.181 92.7899 63.7763 92.9144 63.4182 93.1635C63.0758 93.4125 62.8112 93.7394 62.6244 94.1441C62.3753 94.6111 62.2041 95.2804 62.1107 96.1521C62.0484 96.588 62.0173 96.9693 62.0173 97.2962C62.0173 97.592 62.0562 97.8721 62.1341 98.1368C62.2119 98.557 62.3987 98.8917 62.6944 99.1408C62.9902 99.3898 63.3638 99.5143 63.8152 99.5143C64.2666 99.5143 64.6557 99.3898 64.9826 99.1408C65.325 98.8917 65.5897 98.557 65.7765 98.1368Z" fill="white"/>
<path d="M74.3425 102.153C74.2024 102.153 74.109 102.075 74.0623 101.919L71.8442 90.455V90.4083C71.8442 90.2215 71.9376 90.1282 72.1244 90.1282H75.043C75.2142 90.1282 75.3076 90.206 75.3232 90.3616L76.3271 97.4363C76.3271 97.483 76.3427 97.5063 76.3738 97.5063C76.4205 97.5063 76.4517 97.483 76.4672 97.4363L79.1757 90.3616C79.2379 90.206 79.3547 90.1282 79.5259 90.1282L82.4445 90.1749C82.5379 90.1749 82.6002 90.206 82.6313 90.2682C82.678 90.3149 82.678 90.3928 82.6313 90.5017L77.6347 101.919C77.5568 102.075 77.4479 102.153 77.3078 102.153H74.3425Z" fill="white"/>
</svg>
