<svg width="275" height="150" viewBox="0 0 275 150" fill="none" xmlns="http://www.w3.org/2000/svg">
<rect width="274.437" height="150" fill="white"/>
<path d="M69.7295 59H63.0626L61.8709 73.3729H68.5377C72.5203 73.3729 76.0156 70.1554 76.3447 66.1864C76.6738 62.2175 73.7121 59 69.7295 59Z" fill="#414445"/>
<path d="M61.601 76.6271H68.2679C72.2505 76.6271 75.2122 79.8446 74.8831 83.8136C74.554 87.7825 71.0587 91 67.0761 91H60.4092L61.601 76.6271Z" fill="#414445"/>
<path d="M52.8585 59H46.1916L44.9999 73.3729H51.6667C55.6493 73.3729 59.1446 70.1554 59.4737 66.1864C59.8028 62.2175 56.8411 59 52.8585 59Z" fill="#414445"/>
<path d="M184.532 74.4381C184.355 74.5269 184.34 74.6157 184.488 74.7045C186.708 75.918 187.818 77.8716 187.818 80.5652C187.818 80.8315 187.788 81.2903 187.729 81.9415C187.374 84.8127 186.145 86.9882 184.044 88.4682C181.972 89.9186 179.411 90.6438 176.363 90.6438H165.174C165.026 90.6438 164.908 90.5994 164.819 90.5106C164.73 90.3922 164.701 90.259 164.73 90.111L168.415 60.0971C168.445 59.9491 168.504 59.8307 168.593 59.7419C168.711 59.6235 168.844 59.5643 168.992 59.5643H179.826C185.983 59.5643 189.061 61.8879 189.061 66.535C189.061 67.2158 189.031 67.7338 188.972 68.089C188.646 71.0193 187.166 73.1357 184.532 74.4381ZM174.098 64.9366C174.039 64.9366 173.98 64.9662 173.921 65.0254C173.891 65.055 173.876 65.0994 173.876 65.1586L173.033 72.0849C172.974 72.2329 173.033 72.3069 173.21 72.3069H178.272C179.604 72.3069 180.684 71.9961 181.513 71.3745C182.342 70.7233 182.83 69.8205 182.978 68.6662L183.023 68.1334C183.023 67.127 182.682 66.3426 182.001 65.7802C181.35 65.2178 180.403 64.9366 179.16 64.9366H174.098ZM177.029 85.2271C178.479 85.2271 179.619 84.8275 180.447 84.0283C181.306 83.1995 181.735 82.0747 181.735 80.6539C181.735 79.618 181.395 78.8188 180.714 78.2564C180.063 77.694 179.13 77.4128 177.917 77.4128H172.589C172.441 77.4128 172.367 77.4868 172.367 77.6348L171.434 85.0051C171.434 85.1531 171.494 85.2271 171.612 85.2271H177.029Z" fill="#414445"/>
<path d="M212.219 76.88C212.248 77.7976 212.16 79.0556 211.952 80.6539C211.864 81.0091 211.656 81.1867 211.331 81.1867H198.011C197.863 81.1867 197.789 81.2607 197.789 81.4087C197.819 82.0599 197.908 82.6519 198.055 83.1847C198.647 84.8423 200.068 85.6711 202.318 85.6711C204.123 85.6415 205.677 84.8719 206.98 83.3623C207.217 83.0367 207.439 83.0071 207.646 83.2735L210.398 86.4258C210.487 86.5442 210.532 86.6626 210.532 86.781C210.532 86.929 210.472 87.0622 210.354 87.1806C209.259 88.3942 207.912 89.3414 206.314 90.0222C204.745 90.6734 203.073 90.999 201.297 90.999C198.84 90.999 196.827 90.4218 195.258 89.2674C193.69 88.113 192.654 86.4998 192.15 84.4279C191.914 83.5991 191.795 82.5483 191.795 81.2755C191.795 80.5652 191.84 79.8104 191.928 79.0112C192.047 77.3536 192.446 75.7848 193.127 74.3049C194.045 72.2033 195.406 70.5309 197.212 69.2878C199.047 68.0446 201.089 67.423 203.339 67.423C206.21 67.423 208.4 68.2814 209.91 69.9981C211.42 71.7149 212.189 74.0089 212.219 76.88ZM202.717 72.8397C200.882 72.8397 199.58 73.7129 198.81 75.4592C198.573 76.0512 198.411 76.5248 198.322 76.88C198.322 77.028 198.381 77.102 198.499 77.102H205.959C206.107 77.102 206.181 77.028 206.181 76.88C206.181 76.5248 206.151 76.1104 206.092 75.6368C205.944 74.7489 205.574 74.0681 204.982 73.5945C204.419 73.0913 203.665 72.8397 202.717 72.8397Z" fill="#414445"/>
<path d="M228.938 72.3069C228.908 72.4549 228.834 72.5881 228.716 72.7065C228.627 72.7953 228.508 72.8397 228.36 72.8397H224.231C224.113 72.8397 224.024 72.9137 223.965 73.0617L222.81 82.4743C222.781 82.6519 222.766 82.8887 222.766 83.1847C222.766 84.6351 223.476 85.3603 224.897 85.3603H226.318C226.466 85.3603 226.584 85.4195 226.673 85.5379C226.792 85.6267 226.836 85.7451 226.806 85.8931L226.274 90.111C226.214 90.4662 226.022 90.6586 225.696 90.6882C224.512 90.7474 223.639 90.777 223.077 90.777C220.887 90.777 219.244 90.4514 218.149 89.8002C217.083 89.1194 216.55 87.891 216.55 86.1151C216.55 85.8783 216.58 85.4935 216.639 84.9607L218.104 73.0617C218.163 72.9137 218.104 72.8397 217.927 72.8397H215.485C215.337 72.8397 215.218 72.7953 215.129 72.7065C215.041 72.5881 215.011 72.4549 215.041 72.3069L215.529 68.3554C215.529 68.2074 215.588 68.089 215.707 68.0002C215.825 67.8818 215.958 67.8226 216.106 67.8226H218.548C218.696 67.8226 218.77 67.7486 218.77 67.6006L219.436 62.3171C219.466 62.1691 219.525 62.0507 219.614 61.9619C219.732 61.8435 219.865 61.7843 220.013 61.7843H224.853C225.001 61.7843 225.119 61.8435 225.208 61.9619C225.297 62.0507 225.326 62.1691 225.297 62.3171L224.631 67.6006C224.631 67.7486 224.705 67.8226 224.853 67.8226H228.982C229.13 67.8226 229.248 67.8818 229.337 68.0002C229.426 68.089 229.456 68.2074 229.426 68.3554L228.938 72.3069Z" fill="#414445"/>
<path d="M92.5052 90.6438C92.3572 90.6438 92.2388 90.5994 92.15 90.5106C92.0612 90.3922 92.0316 90.259 92.0612 90.111L95.7463 60.0972C95.7759 59.9492 95.8351 59.8308 95.9239 59.742C96.0423 59.6236 96.1755 59.5644 96.3235 59.5644H107.112C110.072 59.5644 112.426 60.3044 114.172 61.7844C115.918 63.2347 116.792 65.1883 116.792 67.645C116.792 67.941 116.762 68.385 116.703 68.977L115.193 81.2312C114.986 83.096 114.35 84.7387 113.284 86.1595C112.218 87.5803 110.812 88.6903 109.066 89.4895C107.349 90.259 105.425 90.6438 103.294 90.6438H92.5052ZM98.7654 85.0495C98.7654 85.1975 98.8246 85.2715 98.943 85.2715H104.182C105.514 85.2715 106.639 84.8127 107.556 83.8952C108.474 82.9776 109.036 81.7492 109.244 80.21L110.531 69.9982C110.561 69.791 110.576 69.5098 110.576 69.1546C110.576 67.8522 110.22 66.8311 109.51 66.0911C108.829 65.3215 107.867 64.9367 106.624 64.9367H101.429C101.37 64.9367 101.311 64.9663 101.252 65.0255C101.222 65.0551 101.207 65.0995 101.207 65.1587L98.7654 85.0495Z" fill="#414445"/>
<path d="M134.104 68.3554C134.134 68.2074 134.193 68.089 134.282 68.0002C134.4 67.8818 134.534 67.8226 134.682 67.8226H139.743C139.891 67.8226 140.009 67.8818 140.098 68.0002C140.187 68.089 140.217 68.2074 140.187 68.3554L137.523 90.111C137.494 90.259 137.42 90.3922 137.301 90.5106C137.212 90.5994 137.094 90.6438 136.946 90.6438H131.884C131.736 90.6438 131.618 90.5994 131.529 90.5106C131.44 90.3922 131.411 90.259 131.44 90.111L131.662 88.2019C131.692 88.0835 131.677 88.0243 131.618 88.0243C131.559 87.9947 131.5 88.0243 131.44 88.1131C130.02 90.037 128.096 90.999 125.669 90.999C123.774 90.999 122.161 90.407 120.829 89.2231C119.497 88.0095 118.683 86.3815 118.387 84.3391C118.298 83.7176 118.254 83.0812 118.254 82.43C118.254 81.542 118.328 80.4616 118.476 79.1888C118.772 76.8801 119.245 74.9857 119.897 73.5057C120.696 71.7298 121.88 70.2794 123.449 69.1546C125.047 68.0298 126.838 67.4675 128.821 67.4675C131.189 67.4675 132.802 68.3258 133.66 70.0426C133.72 70.1314 133.764 70.1758 133.794 70.1758C133.853 70.1758 133.897 70.1166 133.927 69.9982L134.104 68.3554ZM131.796 83.0072C132.032 82.5632 132.225 82.0748 132.373 81.542C132.521 81.0092 132.654 80.2544 132.772 79.2776C132.891 78.4784 132.95 77.7829 132.95 77.1909C132.95 76.6877 132.861 76.0809 132.684 75.3705C132.536 74.6009 132.195 73.9941 131.662 73.5501C131.13 73.0765 130.449 72.8398 129.62 72.8398C128.762 72.8398 127.992 73.0765 127.311 73.5501C126.66 74.0237 126.157 74.6453 125.802 75.4149C125.328 76.3029 125.003 77.5757 124.825 79.2332C124.707 80.062 124.647 80.7872 124.647 81.4088C124.647 81.9712 124.721 82.504 124.869 83.0072C125.017 83.8064 125.373 84.4427 125.935 84.9163C126.497 85.3899 127.208 85.6267 128.066 85.6267C128.924 85.6267 129.664 85.3899 130.286 84.9163C130.937 84.4427 131.44 83.8064 131.796 83.0072Z" fill="#414445"/>
<path d="M148.085 90.6438C147.818 90.6438 147.641 90.4958 147.552 90.1998L143.334 68.3998V68.311C143.334 67.9558 143.511 67.7782 143.867 67.7782H149.417C149.742 67.7782 149.92 67.9262 149.949 68.2222L151.859 81.6752C151.859 81.764 151.888 81.8084 151.947 81.8084C152.036 81.8084 152.095 81.764 152.125 81.6752L157.275 68.2222C157.394 67.9262 157.616 67.7782 157.941 67.7782L163.491 67.867C163.669 67.867 163.787 67.9262 163.846 68.0446C163.935 68.1334 163.935 68.2814 163.846 68.4886L154.345 90.1998C154.197 90.4958 153.99 90.6438 153.723 90.6438H148.085Z" fill="#414445"/>
</svg>
