<svg width="275" height="150" viewBox="0 0 275 150" fill="none" xmlns="http://www.w3.org/2000/svg">
<rect width="274.437" height="150" fill="#102C40"/>
<path d="M69.7291 59H63.0622L61.8705 73.3729H68.5373C72.5199 73.3729 76.0152 70.1554 76.3443 66.1864C76.6734 62.2175 73.7117 59 69.7291 59Z" fill="#FF8833"/>
<path d="M61.6006 76.6271H68.2675C72.2501 76.6271 75.2118 79.8446 74.8827 83.8136C74.5536 87.7825 71.0583 91 67.0757 91H60.4089L61.6006 76.6271Z" fill="#FF8833"/>
<path d="M52.8586 59H46.1918L45 73.3729H51.6669C55.6494 73.3729 59.1447 70.1554 59.4738 66.1864C59.8029 62.2175 56.8412 59 52.8586 59Z" fill="white"/>
<path d="M184.532 74.4387C184.354 74.5275 184.339 74.6163 184.487 74.7051C186.707 75.9186 187.817 77.8722 187.817 80.5658C187.817 80.8322 187.788 81.2909 187.728 81.9421C187.373 84.8133 186.145 86.9888 184.043 88.4688C181.971 89.9192 179.411 90.6444 176.362 90.6444H165.174C165.026 90.6444 164.907 90.6 164.818 90.5112C164.73 90.3928 164.7 90.2596 164.73 90.1116L168.415 60.0977C168.444 59.9497 168.504 59.8313 168.592 59.7425C168.711 59.6241 168.844 59.5649 168.992 59.5649H179.825C185.982 59.5649 189.06 61.8885 189.06 66.5356C189.06 67.2164 189.031 67.7344 188.972 68.0896C188.646 71.0199 187.166 73.1363 184.532 74.4387ZM174.098 64.9372C174.039 64.9372 173.979 64.9668 173.92 65.026C173.891 65.0556 173.876 65.1 173.876 65.1592L173.032 72.0855C172.973 72.2335 173.032 72.3075 173.21 72.3075H178.271C179.603 72.3075 180.684 71.9967 181.513 71.3751C182.341 70.7239 182.83 69.8212 182.978 68.6668L183.022 68.134C183.022 67.1276 182.682 66.3432 182.001 65.7808C181.35 65.2184 180.403 64.9372 179.159 64.9372H174.098ZM177.028 85.2277C178.479 85.2277 179.618 84.8281 180.447 84.0289C181.305 83.2001 181.735 82.0753 181.735 80.6546C181.735 79.6186 181.394 78.8194 180.713 78.257C180.062 77.6946 179.13 77.4134 177.916 77.4134H172.588C172.44 77.4134 172.366 77.4874 172.366 77.6354L171.434 85.0057C171.434 85.1537 171.493 85.2277 171.612 85.2277H177.028Z" fill="#FF8833"/>
<path d="M212.218 76.8806C212.248 77.7982 212.159 79.0562 211.952 80.6546C211.863 81.0098 211.656 81.1873 211.33 81.1873H198.011C197.863 81.1873 197.789 81.2613 197.789 81.4093C197.818 82.0605 197.907 82.6525 198.055 83.1853C198.647 84.8429 200.068 85.6717 202.317 85.6717C204.123 85.6421 205.677 84.8725 206.979 83.3629C207.216 83.0373 207.438 83.0077 207.645 83.2741L210.398 86.4265C210.487 86.5449 210.531 86.6632 210.531 86.7816C210.531 86.9296 210.472 87.0628 210.354 87.1812C209.258 88.3948 207.912 89.342 206.313 90.0228C204.745 90.674 203.072 90.9996 201.296 90.9996C198.839 90.9996 196.827 90.4224 195.258 89.268C193.689 88.1136 192.653 86.5005 192.15 84.4285C191.913 83.5997 191.795 82.5489 191.795 81.2761C191.795 80.5658 191.839 79.811 191.928 79.0118C192.046 77.3542 192.446 75.7854 193.127 74.3055C194.044 72.2039 195.406 70.5315 197.211 69.2884C199.047 68.0452 201.089 67.4236 203.339 67.4236C206.21 67.4236 208.4 68.282 209.91 69.9988C211.419 71.7155 212.189 74.0095 212.218 76.8806ZM202.717 72.8403C200.882 72.8403 199.579 73.7135 198.81 75.4599C198.573 76.0518 198.41 76.5254 198.321 76.8806C198.321 77.0286 198.381 77.1026 198.499 77.1026H205.958C206.106 77.1026 206.18 77.0286 206.18 76.8806C206.18 76.5254 206.15 76.111 206.091 75.6374C205.943 74.7495 205.573 74.0687 204.981 73.5951C204.419 73.0919 203.664 72.8403 202.717 72.8403Z" fill="#FF8833"/>
<path d="M228.937 72.3075C228.908 72.4555 228.833 72.5887 228.715 72.7071C228.626 72.7959 228.508 72.8403 228.36 72.8403H224.231C224.112 72.8403 224.024 72.9143 223.964 73.0623L222.81 82.4749C222.78 82.6525 222.766 82.8893 222.766 83.1853C222.766 84.6357 223.476 85.3609 224.897 85.3609H226.318C226.466 85.3609 226.584 85.4201 226.673 85.5385C226.791 85.6273 226.836 85.7457 226.806 85.8937L226.273 90.1116C226.214 90.4668 226.022 90.6592 225.696 90.6888C224.512 90.748 223.639 90.7776 223.076 90.7776C220.886 90.7776 219.243 90.452 218.148 89.8008C217.083 89.12 216.55 87.8916 216.55 86.1157C216.55 85.8789 216.579 85.4941 216.639 84.9613L218.104 73.0623C218.163 72.9143 218.104 72.8403 217.926 72.8403H215.484C215.336 72.8403 215.218 72.7959 215.129 72.7071C215.04 72.5887 215.011 72.4555 215.04 72.3075L215.529 68.356C215.529 68.208 215.588 68.0896 215.706 68.0008C215.825 67.8824 215.958 67.8232 216.106 67.8232H218.548C218.696 67.8232 218.77 67.7492 218.77 67.6012L219.436 62.3177C219.465 62.1697 219.524 62.0513 219.613 61.9625C219.732 61.8441 219.865 61.7849 220.013 61.7849H224.852C225 61.7849 225.119 61.8441 225.208 61.9625C225.296 62.0513 225.326 62.1697 225.296 62.3177L224.63 67.6012C224.63 67.7492 224.704 67.8232 224.852 67.8232H228.981C229.129 67.8232 229.248 67.8824 229.337 68.0008C229.425 68.0896 229.455 68.208 229.425 68.356L228.937 72.3075Z" fill="#FF8833"/>
<path d="M92.5051 90.6445C92.3571 90.6445 92.2387 90.6001 92.1499 90.5113C92.0611 90.3929 92.0315 90.2597 92.0611 90.1117L95.7462 60.0979C95.7758 59.9499 95.835 59.8315 95.9238 59.7427C96.0422 59.6243 96.1754 59.5651 96.3234 59.5651H107.112C110.072 59.5651 112.425 60.3051 114.172 61.785C115.918 63.2354 116.791 65.189 116.791 67.6457C116.791 67.9417 116.762 68.3857 116.703 68.9777L115.193 81.2319C114.986 83.0966 114.349 84.7394 113.284 86.1602C112.218 87.581 110.812 88.6909 109.066 89.4901C107.349 90.2597 105.425 90.6445 103.294 90.6445H92.5051ZM98.7653 85.0502C98.7653 85.1982 98.8245 85.2722 98.9429 85.2722H104.182C105.514 85.2722 106.639 84.8134 107.556 83.8958C108.474 82.9782 109.036 81.7499 109.244 80.2107L110.531 69.9989C110.561 69.7917 110.576 69.5105 110.576 69.1553C110.576 67.8529 110.22 66.8317 109.51 66.0917C108.829 65.3222 107.867 64.9374 106.624 64.9374H101.429C101.37 64.9374 101.311 64.967 101.252 65.0262C101.222 65.0558 101.207 65.1002 101.207 65.1594L98.7653 85.0502Z" fill="white"/>
<path d="M134.104 68.3561C134.134 68.2081 134.193 68.0897 134.282 68.0009C134.4 67.8825 134.533 67.8233 134.681 67.8233H139.743C139.891 67.8233 140.009 67.8825 140.098 68.0009C140.187 68.0897 140.217 68.2081 140.187 68.3561L137.523 90.1117C137.493 90.2597 137.419 90.3929 137.301 90.5113C137.212 90.6001 137.094 90.6445 136.946 90.6445H131.884C131.736 90.6445 131.618 90.6001 131.529 90.5113C131.44 90.3929 131.411 90.2597 131.44 90.1117L131.662 88.2025C131.692 88.0841 131.677 88.0249 131.618 88.0249C131.559 87.9953 131.5 88.0249 131.44 88.1137C130.02 90.0377 128.096 90.9997 125.668 90.9997C123.774 90.9997 122.161 90.4077 120.829 89.2237C119.497 88.0101 118.683 86.3822 118.387 84.3398C118.298 83.7182 118.254 83.0818 118.254 82.4306C118.254 81.5427 118.328 80.4623 118.476 79.1895C118.772 76.8807 119.245 74.9864 119.897 73.5064C120.696 71.7304 121.88 70.2801 123.448 69.1553C125.047 68.0305 126.838 67.4681 128.821 67.4681C131.189 67.4681 132.802 68.3265 133.66 70.0433C133.72 70.1321 133.764 70.1765 133.794 70.1765C133.853 70.1765 133.897 70.1173 133.927 69.9989L134.104 68.3561ZM131.796 83.0078C132.032 82.5638 132.225 82.0755 132.373 81.5427C132.521 81.0099 132.654 80.2551 132.772 79.2783C132.891 78.4791 132.95 77.7835 132.95 77.1915C132.95 76.6884 132.861 76.0816 132.684 75.3712C132.536 74.6016 132.195 73.9948 131.662 73.5508C131.13 73.0772 130.449 72.8404 129.62 72.8404C128.762 72.8404 127.992 73.0772 127.311 73.5508C126.66 74.0244 126.157 74.646 125.802 75.4156C125.328 76.3036 125.002 77.5763 124.825 79.2339C124.706 80.0627 124.647 80.7879 124.647 81.4095C124.647 81.9719 124.721 82.5046 124.869 83.0078C125.017 83.807 125.372 84.4434 125.935 84.917C126.497 85.3906 127.208 85.6274 128.066 85.6274C128.924 85.6274 129.664 85.3906 130.286 84.917C130.937 84.4434 131.44 83.807 131.796 83.0078Z" fill="white"/>
<path d="M148.084 90.6445C147.818 90.6445 147.64 90.4965 147.552 90.2005L143.334 68.4005V68.3117C143.334 67.9565 143.511 67.7789 143.867 67.7789H149.416C149.742 67.7789 149.92 67.9269 149.949 68.2229L151.858 81.6759C151.858 81.7647 151.888 81.8091 151.947 81.8091C152.036 81.8091 152.095 81.7647 152.125 81.6759L157.275 68.2229C157.394 67.9269 157.616 67.7789 157.941 67.7789L163.491 67.8677C163.669 67.8677 163.787 67.9269 163.846 68.0453C163.935 68.1341 163.935 68.2821 163.846 68.4893L154.345 90.2005C154.197 90.4965 153.99 90.6445 153.723 90.6445H148.084Z" fill="white"/>
</svg>
