<svg width="247" height="40" viewBox="0 0 247 40" fill="none" xmlns="http://www.w3.org/2000/svg">
    <path d="M0 32.967C2.96704 37.6374 8.73627 40 13.4066 40C20.9086 40 26.9667 36.9808 29.1988 30.9424L15.3985 30.8673C15.2307 30.8752 15.0611 30.8791 14.8901 30.8791C11.978 30.8791 8.73627 29.6154 7.03298 27.1429L0 32.967Z"
          fill="#FFB900"/>
    <path d="M19.8631 28.8571C20.0327 28.5735 20.1542 28.2588 20.2198 27.9121C20.6594 25.4945 17.2528 24.4506 14.1209 24.011C8.02199 23.022 2.52748 18.1319 3.9011 10.7692C5.38462 2.8022 12.4176 0 19.5605 0C24.2857 0 28.6814 1.31868 32.033 6.20879L24.8901 11.1538C23.2418 9.28572 20.6594 8.4066 18.4066 8.35165C15.9341 8.2967 13.8462 9.23077 13.6264 11.2088C13.3517 13.4615 15.3297 14.4506 18.2967 15.1099C24.9661 16.357 31.4749 18.8883 29.9024 28.2484L19.8631 28.8571Z"
          fill="#FFB900"/>
    <path d="M33.7322 30.967L32.546 39.4506H42.4361L43.546 31.0204L33.7322 30.967Z" fill="#FFB900"/>
    <path d="M54.7468 31.0814L53.6449 39.4506H63.535L64.6977 31.1355L54.7468 31.0814Z" fill="#FFB900"/>
    <path d="M65.4024 26.0959L34.1484 27.9909L37.9855 0.549453H47.8757L45.2833 18.3351H56.4921L59.0845 0.549453H68.9746L65.4024 26.0959Z"
          fill="#FFB900"/>
    <path d="M70.6487 31.1679C72.0296 37.056 78.1626 40 84.7318 40C91.5486 40 98.2584 37.1115 101.27 31.3345L70.6487 31.1679Z"
          fill="#FFB900"/>
    <path d="M103.093 24.3032L104.677 13.3516C105.941 4.45055 98.4681 0 90.3912 0C82.3142 0 73.7428 4.39561 72.4241 13.3516L70.6267 25.7791L74.407 25.5499L80.5336 25.2836L82.2593 13.3516C82.6988 10.4396 86.1604 8.95605 89.3472 8.95605C92.534 8.95605 95.2813 10.4396 94.8417 13.3516L93.1607 24.7349L103.093 24.3032Z"
          fill="#FFB900"/>
    <path d="M115.027 31.4094L113.92 39.4506H123.865L124.964 31.4634L115.027 31.4094Z" fill="#FFB900"/>
    <path d="M126.087 23.304L116.082 23.7388L118.041 9.5055H107.546L108.865 0.494506H139.799L138.481 9.5055H127.986L126.087 23.304Z"
          fill="#FFB900"/>
    <path d="M139.267 31.4156L138.144 39.4506H154.023C161.873 39.4506 166.493 36.3107 168.668 31.025L139.267 31.4156Z"
          fill="#F2F2F2"/>
    <path fill-rule="evenodd" clip-rule="evenodd"
          d="M168.482 21.6696L140.481 22.7319L143.583 0.549453H159.188C166.605 0.549453 171.44 5 170.177 12.4176C169.847 14.1758 168.254 17.3077 165.232 18.7363C166.734 19.545 167.779 20.562 168.482 21.6696ZM152.319 8.84615L151.33 15.7692H157.045C161.825 15.7692 162.979 8.84615 158.034 8.84615H152.319Z"
          fill="#F2F2F2"/>
    <path d="M173.564 30.9599L172.377 39.4506H199.465L200.669 30.5998L173.564 30.9599Z" fill="#F2F2F2"/>
    <path d="M200.718 20.4466L174.897 21.4262L177.817 0.549453H204.905L203.586 9.83517H186.443L185.619 15.6044H201.388L200.718 20.4466Z"
          fill="#F2F2F2"/>
    <path d="M214.053 30.422L212.811 39.4506H222.756L224.016 30.2896L214.053 30.422Z" fill="#F2F2F2"/>
    <path d="M225.5 19.5063L215.503 19.8856L216.931 9.5055H206.437L207.756 0.494506H238.69L237.371 9.5055H226.877L225.5 19.5063Z"
          fill="#F2F2F2"/>
    <path d="M246.176 24.4808C246.176 28.1785 243.178 31.1761 239.48 31.1761C235.783 31.1761 232.785 28.1785 232.785 24.4808C232.785 20.7831 235.783 17.7855 239.48 17.7855C243.178 17.7855 246.176 20.7831 246.176 24.4808Z"
          fill="#FFB900"/>
</svg>
