<svg width="275" height="150" viewBox="0 0 275 150" fill="none" xmlns="http://www.w3.org/2000/svg">
<rect width="274.632" height="150" transform="translate(0.256592)" fill="#172673"/>
<path d="M45.2566 84.7253C47.4819 88.228 51.8088 90 55.3115 90C60.9381 90 65.4816 87.7356 67.1557 83.2068L56.8055 83.1505C56.6796 83.1564 56.5524 83.1593 56.4242 83.1593C54.2401 83.1593 51.8088 82.2115 50.5313 80.3571L45.2566 84.7253Z" fill="#FFB900"/>
<path d="M60.1539 81.6429C60.2811 81.4302 60.3723 81.1941 60.4214 80.9341C60.7511 79.1209 58.1962 78.3379 55.8473 78.0082C51.2731 77.2665 47.1522 73.5989 48.1824 68.0769C49.2951 62.1016 54.5698 60 59.9269 60C63.4709 60 66.7676 60.989 69.2813 64.6566L63.9242 68.3654C62.6879 66.9643 60.7511 66.3049 59.0616 66.2637C57.2072 66.2225 55.6412 66.9231 55.4764 68.4066C55.2703 70.0962 56.7539 70.8379 58.9791 71.3324C63.9811 72.2678 68.8628 74.1662 67.6834 81.1863L60.1539 81.6429Z" fill="#FFB900"/>
<path d="M70.5558 83.2253L69.6661 89.5879H77.0837L77.9161 83.2653L70.5558 83.2253Z" fill="#FFB900"/>
<path d="M86.3167 83.311L85.4903 89.5879H92.9079L93.7799 83.3517L86.3167 83.311Z" fill="#FFB900"/>
<path d="M94.3084 79.5719L70.8679 80.9932L73.7457 60.4121H81.1633L79.2191 73.7513H87.6257L89.5699 60.4121H96.9875L94.3084 79.5719Z" fill="#FFB900"/>
<path d="M98.2431 83.3759C99.2788 87.792 103.879 90 108.805 90C113.918 90 118.95 87.8336 121.209 83.5009L98.2431 83.3759Z" fill="#FFB900"/>
<path d="M122.576 78.2274L123.764 70.0137C124.712 63.3379 119.108 60 113.05 60C106.992 60 100.564 63.2967 99.5747 70.0137L98.2267 79.3343L101.062 79.1624L105.657 78.9627L106.951 70.0137C107.281 67.8297 109.877 66.717 112.267 66.717C114.657 66.717 116.718 67.8297 116.388 70.0137L115.127 78.5512L122.576 78.2274Z" fill="#FFB900"/>
<path d="M131.527 83.557L130.697 89.5879H138.155L138.98 83.5976L131.527 83.557Z" fill="#FFB900"/>
<path d="M139.822 77.478L132.318 77.8041L133.787 67.1291H125.916L126.905 60.3709H150.106L149.117 67.1291H141.246L139.822 77.478Z" fill="#FFB900"/>
<path d="M149.707 83.5617L148.864 89.5879H160.774C166.661 89.5879 170.126 87.2331 171.758 83.2688L149.707 83.5617Z" fill="#F2F2F2"/>
<path fill-rule="evenodd" clip-rule="evenodd" d="M171.618 76.2522L150.618 77.0489L152.944 60.4121H164.647C170.21 60.4121 173.837 63.75 172.889 69.3132C172.642 70.6319 171.447 72.9808 169.18 74.0522C170.307 74.6588 171.091 75.4215 171.618 76.2522ZM159.496 66.6346L158.754 71.8269H163.04C166.625 71.8269 167.491 66.6346 163.782 66.6346H159.496Z" fill="#F2F2F2"/>
<path d="M175.43 83.22L174.539 89.5879H194.855L195.759 82.9499L175.43 83.22Z" fill="#F2F2F2"/>
<path d="M195.795 75.3349L176.43 76.0697L178.619 60.4121H198.935L197.946 67.3764H185.089L184.471 71.7033H196.298L195.795 75.3349Z" fill="#F2F2F2"/>
<path d="M205.796 82.8165L204.865 89.5879H212.323L213.269 82.7172L205.796 82.8165Z" fill="#F2F2F2"/>
<path d="M214.382 74.6298L206.884 74.9142L207.955 67.1291H200.084L201.073 60.3709H224.274L223.285 67.1291H215.414L214.382 74.6298Z" fill="#F2F2F2"/>
<path d="M229.888 78.3606C229.888 81.1339 227.64 83.3821 224.867 83.3821C222.094 83.3821 219.845 81.1339 219.845 78.3606C219.845 75.5873 222.094 73.3391 224.867 73.3391C227.64 73.3391 229.888 75.5873 229.888 78.3606Z" fill="#FFB900"/>
</svg>
