<svg width="275" height="150" viewBox="0 0 275 150" fill="none" xmlns="http://www.w3.org/2000/svg">
<rect width="274.632" height="150" transform="translate(0.258667)" fill="white"/>
<path d="M45.2587 84.7253C47.4839 88.228 51.8109 90 55.3136 90C60.9401 90 65.4837 87.7356 67.1578 83.2068L56.8076 83.1505C56.6817 83.1564 56.5545 83.1593 56.4263 83.1593C54.2422 83.1593 51.8109 82.2115 50.5334 80.3571L45.2587 84.7253Z" fill="#414445"/>
<path d="M60.156 81.6429C60.2832 81.4302 60.3743 81.1941 60.4235 80.9341C60.7532 79.1209 58.1982 78.3379 55.8493 78.0082C51.2752 77.2665 47.1543 73.5989 48.1845 68.0769C49.2971 62.1016 54.5719 60 59.929 60C63.473 60 66.7697 60.989 69.2834 64.6566L63.9263 68.3654C62.69 66.9643 60.7532 66.3049 59.0636 66.2637C57.2092 66.2225 55.6433 66.9231 55.4785 68.4066C55.2724 70.0962 56.7559 70.8379 58.9812 71.3324C63.9832 72.2678 68.8648 74.1662 67.6855 81.1863L60.156 81.6429Z" fill="#414445"/>
<path d="M70.5578 83.2253L69.6682 89.5879H77.0857L77.9182 83.2653L70.5578 83.2253Z" fill="#414445"/>
<path d="M86.3187 83.311L85.4924 89.5879H92.91L93.782 83.3517L86.3187 83.311Z" fill="#414445"/>
<path d="M94.3105 79.5719L70.87 80.9932L73.7478 60.4121H81.1654L79.2212 73.7513H87.6278L89.572 60.4121H96.9896L94.3105 79.5719Z" fill="#414445"/>
<path d="M98.2452 83.3759C99.2809 87.792 103.881 90 108.808 90C113.92 90 118.952 87.8336 121.211 83.5009L98.2452 83.3759Z" fill="#414445"/>
<path d="M122.578 78.2274L123.766 70.0137C124.714 63.3379 119.11 60 113.052 60C106.994 60 100.566 63.2967 99.5768 70.0137L98.2287 79.3343L101.064 79.1624L105.659 78.9627L106.953 70.0137C107.283 67.8297 109.879 66.717 112.269 66.717C114.659 66.717 116.72 67.8297 116.39 70.0137L115.129 78.5512L122.578 78.2274Z" fill="#414445"/>
<path d="M131.529 83.557L130.699 89.5879H138.158L138.982 83.5976L131.529 83.557Z" fill="#414445"/>
<path d="M139.824 77.478L132.32 77.8041L133.789 67.1291H125.919L126.908 60.3709H150.108L149.119 67.1291H141.248L139.824 77.478Z" fill="#414445"/>
<path d="M149.709 83.5617L148.866 89.5879H160.776C166.664 89.5879 170.128 87.2331 171.76 83.2687L149.709 83.5617Z" fill="#414445"/>
<path fill-rule="evenodd" clip-rule="evenodd" d="M171.62 76.2522L150.62 77.0489L152.946 60.4121H164.649C170.213 60.4121 173.839 63.75 172.891 69.3132C172.644 70.6319 171.449 72.9808 169.182 74.0522C170.309 74.6588 171.093 75.4215 171.62 76.2522ZM159.498 66.6346L158.757 71.8269H163.042C166.627 71.8269 167.493 66.6346 163.784 66.6346H159.498Z" fill="#414445"/>
<path d="M175.432 83.22L174.541 89.5879H194.857L195.761 82.9499L175.432 83.22Z" fill="#414445"/>
<path d="M195.797 75.3349L176.432 76.0697L178.621 60.4121H198.937L197.948 67.3764H185.091L184.473 71.7033H196.3L195.797 75.3349Z" fill="#414445"/>
<path d="M205.799 82.8165L204.867 89.5879H212.325L213.271 82.7172L205.799 82.8165Z" fill="#414445"/>
<path d="M214.384 74.6298L206.886 74.9142L207.957 67.1291H200.086L201.075 60.3709H224.276L223.287 67.1291H215.416L214.384 74.6298Z" fill="#414445"/>
<path d="M229.891 78.3617C229.891 81.135 227.643 83.3832 224.869 83.3832C222.096 83.3832 219.848 81.135 219.848 78.3617C219.848 75.5884 222.096 73.3402 224.869 73.3402C227.643 73.3402 229.891 75.5884 229.891 78.3617Z" fill="#414445"/>
</svg>
