<svg width="162" height="140" viewBox="0 0 162 140" fill="none" xmlns="http://www.w3.org/2000/svg">
<rect width="162" height="140" fill="#172673"/>
<path d="M25.6104 75.8352C26.9455 77.9368 29.5417 79 31.6433 79C35.0192 79 37.7454 77.6414 38.7498 74.9241L32.5397 74.8903C32.4642 74.8938 32.3879 74.8956 32.3109 74.8956C31.0005 74.8956 29.5417 74.3269 28.7752 73.2143L25.6104 75.8352Z" fill="#FFB900"/>
<path d="M34.5488 73.9857C34.6251 73.8581 34.6797 73.7165 34.7093 73.5604C34.9071 72.4725 33.3741 72.0027 31.9648 71.8049C29.2202 71.3599 26.7477 69.1593 27.3658 65.8462C28.0334 62.261 31.1983 61 34.4126 61C36.5389 61 38.517 61.5934 40.0252 63.794L36.8109 66.0192C36.0692 65.1786 34.9071 64.783 33.8933 64.7582C32.7807 64.7335 31.8411 65.1538 31.7422 66.044C31.6186 67.0577 32.5087 67.5027 33.8439 67.7995C36.8451 68.3607 39.7741 69.4997 39.0664 73.7118L34.5488 73.9857Z" fill="#FFB900"/>
<path d="M40.7899 74.9352L40.256 78.7527H44.7066L45.206 74.9592L40.7899 74.9352Z" fill="#FFB900"/>
<path d="M50.2464 74.9866L49.7506 78.7527H54.2011L54.7243 75.011L50.2464 74.9866Z" fill="#FFB900"/>
<path d="M55.0415 72.7431L40.9771 73.5959L42.7038 61.2473H47.1544L45.9878 69.2508H51.0318L52.1984 61.2473H56.6489L55.0415 72.7431Z" fill="#FFB900"/>
<path d="M57.4023 75.0256C58.0237 77.6752 60.7836 79 63.7397 79C66.8072 79 69.8266 77.7002 71.1819 75.1005L57.4023 75.0256Z" fill="#FFB900"/>
<path d="M72.0022 71.9365L72.715 67.0082C73.2837 63.0027 69.921 61 66.2864 61C62.6518 61 58.7946 62.978 58.2012 67.0082L57.3924 72.6006L59.0935 72.4974L61.8505 72.3776L62.627 67.0082C62.8248 65.6978 64.3825 65.0302 65.8166 65.0302C67.2507 65.0302 68.4869 65.6978 68.2891 67.0082L67.5327 72.1307L72.0022 71.9365Z" fill="#FFB900"/>
<path d="M77.3724 75.1342L76.8744 78.7527H81.3497L81.8443 75.1586L77.3724 75.1342Z" fill="#FFB900"/>
<path d="M82.3496 71.4868L77.8474 71.6824L78.7288 65.2775H74.0063L74.5997 61.2225H88.52L87.9266 65.2775H83.2041L82.3496 71.4868Z" fill="#FFB900"/>
<path d="M88.2806 75.137L87.775 78.7527H94.9206C98.4533 78.7527 100.532 77.3398 101.511 74.9613L88.2806 75.137Z" fill="white"/>
<path fill-rule="evenodd" clip-rule="evenodd" d="M101.427 70.7513L88.827 71.2294L90.2228 61.2473H97.2448C100.583 61.2473 102.759 63.25 102.19 66.5879C102.042 67.3791 101.324 68.7885 99.9646 69.4313C100.64 69.7953 101.111 70.2529 101.427 70.7513ZM94.1541 64.9808L93.7091 68.0962H96.2805C98.4316 68.0962 98.9508 64.9808 96.7256 64.9808H94.1541Z" fill="white"/>
<path d="M103.714 74.932L103.18 78.7527H115.37L115.912 74.7699L103.714 74.932Z" fill="white"/>
<path d="M115.934 70.201L104.314 70.6418L105.628 61.2473H117.817L117.224 65.4258H109.51L109.139 68.022H116.235L115.934 70.201Z" fill="white"/>
<path d="M121.934 74.6899L121.375 78.7527H125.85L126.418 74.6303L121.934 74.6899Z" fill="white"/>
<path d="M127.086 69.7779L122.587 69.9485L123.23 65.2775H118.507L119.1 61.2225H133.021L132.427 65.2775H127.705L127.086 69.7779Z" fill="white"/>
<path d="M136.39 72.0177C136.39 73.6816 135.041 75.0306 133.377 75.0306C131.713 75.0306 130.364 73.6816 130.364 72.0177C130.364 70.3537 131.713 69.0048 133.377 69.0048C135.041 69.0048 136.39 70.3537 136.39 72.0177Z" fill="#FFB900"/>
</svg>
