<svg width="173" height="25" viewBox="0 0 173 25" fill="none" xmlns="http://www.w3.org/2000/svg">
    <rect width="173" height="25" fill="url(#paint0_linear_413_100)"/>
    <path d="M18.5804 17.0467C18.5804 17.9622 18.303 18.7322 17.7483 19.3564C17.1935 19.9807 16.403 20.4523 15.3767 20.7714C14.3504 21.0905 13.116 21.25 11.6737 21.25C10.1897 21.25 8.88601 21.0697 7.76263 20.709C6.65311 20.3483 5.7863 19.8419 5.1622 19.1899C4.5381 18.5379 4.20524 17.7819 4.16364 16.9218H8.46994C8.56702 17.2409 8.75426 17.5183 9.03163 17.7542C9.32288 17.9761 9.70428 18.1495 10.1758 18.2744C10.6474 18.3853 11.2091 18.4408 11.8609 18.4408C12.7069 18.4408 13.3449 18.3576 13.7748 18.1911C14.2186 18.0247 14.4405 17.775 14.4405 17.442C14.4405 17.1785 14.2741 16.9842 13.9412 16.8594C13.6084 16.7207 13.0398 16.6166 12.2354 16.5473L10.1342 16.3808C8.73345 16.2837 7.617 16.0756 6.78487 15.7565C5.9666 15.4236 5.37717 15.0005 5.01658 14.4872C4.65598 13.9601 4.47569 13.3635 4.47569 12.6977C4.47569 11.796 4.75307 11.0538 5.30782 10.4712C5.87645 9.87465 6.66005 9.43073 7.65861 9.13941C8.67104 8.83422 9.8499 8.68162 11.1952 8.68162C12.5266 8.68162 13.7124 8.85503 14.7526 9.20184C15.7927 9.54864 16.6249 10.0342 17.249 10.6584C17.8731 11.2688 18.2337 11.9902 18.3308 12.8225H14.0245C13.9551 12.5589 13.8026 12.3231 13.5668 12.115C13.331 11.8931 13.0051 11.7127 12.589 11.574C12.1729 11.4353 11.639 11.3659 10.9872 11.3659C10.2244 11.3659 9.64187 11.4492 9.23967 11.6156C8.85134 11.7821 8.65717 12.0179 8.65717 12.3231C8.65717 12.559 8.77506 12.7462 9.01083 12.885C9.26047 13.0237 9.71815 13.1208 10.3839 13.1763L13.1507 13.3844C14.5237 13.4676 15.6055 13.6687 16.396 13.9878C17.1866 14.293 17.7483 14.7022 18.0811 15.2155C18.414 15.7288 18.5804 16.3392 18.5804 17.0467Z" fill="white"/>
    <path d="M24.6352 17.5253L23.4702 17.1299L30.0441 9.03537H34.5168L24.1775 20.9171H20.3705V4.89446H24.6352V17.5253ZM26.6531 15.1115L29.8568 12.8641L34.8288 20.9171H30.0441L26.6531 15.1115Z" fill="white"/>
    <path d="M35.8308 8.84809L37.9736 9.26426L40.0955 8.84809V20.9171H35.8308V8.84809ZM37.9528 7.87009C37.2177 7.87009 36.6213 7.68975 36.1637 7.32906C35.706 6.95451 35.4772 6.44817 35.4772 5.81004C35.4772 5.18578 35.706 4.68638 36.1637 4.31182C36.6213 3.93727 37.2177 3.74999 37.9528 3.74999C38.7156 3.74999 39.3189 3.93727 39.7627 4.31182C40.2203 4.68638 40.4492 5.18578 40.4492 5.81004C40.4492 6.44817 40.2203 6.95451 39.7627 7.32906C39.3189 7.68975 38.7156 7.87009 37.9528 7.87009Z" fill="white"/>
    <path d="M41.8718 9.03537H46.1365L46.9062 13.7797V20.9171H42.6623V13.1347L41.8718 9.03537ZM51.2749 8.68162C52.4122 8.68162 53.383 8.91052 54.1874 9.3683C54.9918 9.82609 55.602 10.4712 56.0181 11.3035C56.448 12.1358 56.663 13.1208 56.663 14.2583V20.9171H52.4191V14.8826C52.4191 13.9947 52.1903 13.315 51.7326 12.8433C51.2888 12.3717 50.6439 12.1358 49.7979 12.1358C49.2154 12.1358 48.7022 12.2607 48.2584 12.5104C47.8285 12.7601 47.4956 13.1138 47.2599 13.5716C47.0241 14.0294 46.9062 14.5704 46.9062 15.1947L45.5956 14.508C45.762 13.2456 46.1157 12.1844 46.6566 11.3243C47.1974 10.4503 47.8632 9.79141 48.6537 9.34749C49.4442 8.90358 50.318 8.68162 51.2749 8.68162Z" fill="white"/>
    <path d="M60.8042 21.1251C60.3604 21.1251 59.9512 21.0211 59.5768 20.813C59.2162 20.6049 58.9319 20.3205 58.7238 19.9599C58.5158 19.5853 58.4118 19.1761 58.4118 18.7322C58.4118 18.2882 58.5158 17.8859 58.7238 17.5253C58.9319 17.1646 59.2162 16.8802 59.5768 16.6721C59.9512 16.4502 60.3604 16.3392 60.8042 16.3392C61.2619 16.3392 61.671 16.4502 62.0316 16.6721C62.3922 16.8802 62.6765 17.1646 62.8845 17.5253C63.0926 17.8859 63.1966 18.2882 63.1966 18.7322C63.1966 19.1761 63.0926 19.5853 62.8845 19.9599C62.6765 20.3205 62.3922 20.6049 62.0316 20.813C61.671 21.0211 61.2619 21.1251 60.8042 21.1251Z" fill="white"/>
    <path d="M65.0856 4.89446H69.3503V12.4896L68.7886 13.5716V16.5681L69.3503 17.6085V20.9171H65.0856V4.89446ZM67.9773 14.9866C68.1715 13.6965 68.5529 12.5867 69.1215 11.6572C69.6901 10.7139 70.4182 9.98562 71.3058 9.47235C72.2073 8.9452 73.2128 8.68162 74.3223 8.68162C75.4873 8.68162 76.5067 8.9452 77.3804 9.47235C78.2681 9.9995 78.9546 10.7347 79.44 11.6781C79.9393 12.6214 80.1889 13.7242 80.1889 14.9866C80.1889 16.2213 79.9393 17.3172 79.44 18.2744C78.9546 19.2177 78.2681 19.9529 77.3804 20.4801C76.5067 20.9934 75.4873 21.25 74.3223 21.25C73.199 21.25 72.1935 20.9934 71.3058 20.4801C70.4182 19.9529 69.6901 19.2177 69.1215 18.2744C68.5529 17.331 68.1715 16.2351 67.9773 14.9866ZM75.9034 14.9866C75.9034 14.3901 75.7786 13.863 75.5289 13.4052C75.2932 12.9474 74.9603 12.5867 74.5304 12.3231C74.1004 12.0595 73.6012 11.9278 73.0325 11.9278C72.4639 11.9278 71.923 12.0595 71.4099 12.3231C70.8967 12.5867 70.446 12.9474 70.0576 13.4052C69.6693 13.863 69.3711 14.3901 69.1631 14.9866C69.3711 15.5693 69.6693 16.0895 70.0576 16.5473C70.446 17.005 70.8967 17.3657 71.4099 17.6293C71.923 17.879 72.4639 18.0039 73.0325 18.0039C73.6012 18.0039 74.1004 17.879 74.5304 17.6293C74.9603 17.3657 75.2932 17.005 75.5289 16.5473C75.7786 16.0895 75.9034 15.5693 75.9034 14.9866Z" fill="white"/>
    <path d="M87.1467 21.25C86.0371 21.25 85.0871 21.0211 84.2966 20.5633C83.5199 20.1055 82.9236 19.4605 82.5075 18.6281C82.0914 17.7819 81.8834 16.797 81.8834 15.6733V9.03537H86.1273V15.0698C86.1273 15.9438 86.3423 16.6166 86.7722 17.0883C87.2021 17.5599 87.8193 17.7958 88.6237 17.7958C89.2201 17.7958 89.7194 17.6779 90.1216 17.442C90.5238 17.1923 90.8358 16.8386 91.0577 16.3808C91.2796 15.923 91.3906 15.375 91.3906 14.7369L92.7012 15.4236C92.5486 16.686 92.2019 17.7542 91.661 18.6281C91.134 19.4882 90.4821 20.1402 89.7055 20.5841C88.9288 21.028 88.0759 21.25 87.1467 21.25ZM92.1603 20.9171L91.3906 16.1519V9.03537H95.6345V16.8178L96.4042 20.9171H92.1603Z" fill="white"/>
    <path d="M98.2004 8.84809L100.343 9.26426L102.465 8.84809V20.9171H98.2004V8.84809ZM100.322 7.87009C99.5873 7.87009 98.991 7.68975 98.5333 7.32906C98.0756 6.95451 97.8468 6.44817 97.8468 5.81004C97.8468 5.18578 98.0756 4.68638 98.5333 4.31182C98.991 3.93727 99.5873 3.74999 100.322 3.74999C101.085 3.74999 101.688 3.93727 102.132 4.31182C102.59 4.68638 102.819 5.18578 102.819 5.81004C102.819 6.44817 102.59 6.95451 102.132 7.32906C101.688 7.68975 101.085 7.87009 100.322 7.87009Z" fill="white"/>
    <path d="M104.803 4.89446H109.068V20.9171H104.803V4.89446Z" fill="white"/>
    <path d="M122.224 20.9171L121.662 16.464L122.39 15.0074L121.683 13.1763L122.681 4.89446H127.092L125.864 14.6537L126.613 20.9171H122.224ZM123.139 14.9866C122.945 16.2351 122.556 17.331 121.974 18.2744C121.405 19.2177 120.677 19.9529 119.79 20.4801C118.916 20.9934 117.917 21.25 116.794 21.25C115.629 21.25 114.603 20.9934 113.715 20.4801C112.841 19.9529 112.155 19.2177 111.655 18.2744C111.156 17.3172 110.906 16.2213 110.906 14.9866C110.906 13.7242 111.156 12.6214 111.655 11.6781C112.155 10.7347 112.841 9.9995 113.715 9.47235C114.603 8.9452 115.629 8.68162 116.794 8.68162C117.917 8.68162 118.916 8.9452 119.79 9.47235C120.677 9.98562 121.412 10.7139 121.995 11.6572C122.577 12.5867 122.959 13.6965 123.139 14.9866ZM115.213 14.9866C115.213 15.5693 115.331 16.0895 115.566 16.5473C115.816 17.005 116.156 17.3657 116.586 17.6293C117.016 17.879 117.508 18.0039 118.063 18.0039C118.645 18.0039 119.193 17.879 119.706 17.6293C120.219 17.3657 120.67 17.005 121.059 16.5473C121.447 16.0895 121.738 15.5693 121.932 14.9866C121.738 14.3901 121.447 13.863 121.059 13.4052C120.67 12.9474 120.219 12.5867 119.706 12.3231C119.193 12.0595 118.645 11.9278 118.063 11.9278C117.508 11.9278 117.016 12.0595 116.586 12.3231C116.156 12.5867 115.816 12.9474 115.566 13.4052C115.331 13.863 115.213 14.3901 115.213 14.9866Z" fill="white"/>
    <path d="M135.521 21.25C134.079 21.25 132.789 20.9864 131.652 20.4593C130.529 19.9321 129.641 19.1969 128.989 18.2536C128.337 17.2964 128.011 16.1866 128.011 14.9242C128.011 13.6895 128.323 12.6075 128.948 11.6781C129.572 10.7347 130.425 9.9995 131.506 9.47235C132.602 8.9452 133.836 8.68162 135.209 8.68162C136.638 8.68162 137.851 8.99375 138.85 9.61801C139.862 10.2284 140.639 11.0954 141.18 12.2191C141.735 13.3427 142.012 14.6676 142.012 16.1935H131.444V13.6341H139.62L138.226 14.5288C138.17 13.9184 138.018 13.4052 137.768 12.989C137.519 12.559 137.186 12.2329 136.77 12.011C136.367 11.789 135.882 11.6781 135.313 11.6781C134.689 11.6781 134.155 11.8029 133.712 12.0526C133.268 12.3023 132.921 12.6491 132.671 13.093C132.422 13.5231 132.297 14.0294 132.297 14.6121C132.297 15.3612 132.463 15.9993 132.796 16.5264C133.143 17.0397 133.642 17.4351 134.294 17.7125C134.96 17.99 135.771 18.1287 136.728 18.1287C137.602 18.1287 138.469 18.0177 139.328 17.7958C140.202 17.5599 140.993 17.2339 141.7 16.8178V19.5229C140.882 20.0778 139.946 20.5078 138.892 20.813C137.851 21.1043 136.728 21.25 135.521 21.25Z" fill="white"/>
    <path d="M143.207 9.03537H147.534L148.242 13.2803V20.9171H143.998V13.0306L143.207 9.03537ZM153.817 8.84809V12.4688C153.401 12.3855 153.006 12.3301 152.631 12.3023C152.271 12.2607 151.938 12.2399 151.633 12.2399C151.022 12.2399 150.461 12.3647 149.947 12.6144C149.434 12.8503 149.018 13.2456 148.699 13.8005C148.394 14.3554 148.242 15.0976 148.242 16.027L147.43 15.0282C147.541 14.1681 147.708 13.3635 147.93 12.6144C148.151 11.8515 148.45 11.1786 148.824 10.596C149.212 9.9995 149.691 9.53477 150.26 9.20184C150.828 8.85503 151.522 8.68162 152.34 8.68162C152.576 8.68162 152.818 8.69549 153.068 8.72324C153.318 8.75098 153.567 8.7926 153.817 8.84809Z" fill="white"/>
    <path d="M168.836 17.0467C168.836 17.9622 168.559 18.7322 168.004 19.3564C167.449 19.9807 166.659 20.4523 165.633 20.7714C164.606 21.0905 163.372 21.25 161.93 21.25C160.446 21.25 159.142 21.0697 158.019 20.709C156.909 20.3483 156.042 19.8419 155.418 19.1899C154.794 18.5379 154.461 17.7819 154.42 16.9218H158.726C158.823 17.2409 159.01 17.5183 159.288 17.7542C159.579 17.9761 159.96 18.1495 160.432 18.2744C160.903 18.3853 161.465 18.4408 162.117 18.4408C162.963 18.4408 163.601 18.3576 164.031 18.1911C164.475 18.0247 164.696 17.775 164.696 17.442C164.696 17.1785 164.53 16.9842 164.197 16.8594C163.864 16.7207 163.296 16.6166 162.491 16.5473L160.39 16.3808C158.989 16.2837 157.873 16.0756 157.041 15.7565C156.223 15.4236 155.633 15.0005 155.272 14.4872C154.912 13.9601 154.732 13.3635 154.732 12.6977C154.732 11.796 155.009 11.0538 155.564 10.4712C156.132 9.87465 156.916 9.43073 157.915 9.13941C158.927 8.83422 160.106 8.68162 161.451 8.68162C162.783 8.68162 163.968 8.85503 165.008 9.20184C166.049 9.54864 166.881 10.0342 167.505 10.6584C168.129 11.2688 168.49 11.9902 168.587 12.8225H164.28C164.211 12.5589 164.058 12.3231 163.823 12.115C163.587 11.8931 163.261 11.7127 162.845 11.574C162.429 11.4353 161.895 11.3659 161.243 11.3659C160.48 11.3659 159.898 11.4492 159.496 11.6156C159.107 11.7821 158.913 12.0179 158.913 12.3231C158.913 12.559 159.031 12.7462 159.267 12.885C159.516 13.0237 159.974 13.1208 160.64 13.1763L163.407 13.3844C164.78 13.4676 165.861 13.6687 166.652 13.9878C167.442 14.293 168.004 14.7022 168.337 15.2155C168.67 15.7288 168.836 16.3392 168.836 17.0467Z" fill="white"/>
    <defs>
        <linearGradient id="paint0_linear_413_100" x1="0" y1="12.5" x2="173" y2="12.5" gradientUnits="userSpaceOnUse">
            <stop stop-color="#565F68"/>
            <stop offset="1" stop-color="#353637"/>
        </linearGradient>
    </defs>
</svg>
